<?xml version="1.0" standalone="no"?>
<!DOCTYPE svg PUBLIC "-//W3C//DTD SVG 1.1//EN" "http://www.w3.org/Graphics/SVG/1.1/DTD/svg11.dtd" >
<svg>
<metadata>
Created by FontForge 20110222 at Wed Dec  3 17:34:28 2014
 By deploy user
</metadata>
<defs>
<font id="Interstate-Light" horiz-adv-x="1491" >
  <font-face 
    font-family="Interstate Light"
    font-weight="400"
    font-stretch="normal"
    units-per-em="2048"
    panose-1="2 0 5 6 3 0 0 2 0 4"
    ascent="1638"
    descent="-410"
    x-height="1075"
    cap-height="1434"
    bbox="-105 -395 2662 1872"
    underline-thickness="41"
    underline-position="-232"
    unicode-range="U+0020-FB02"
  />
<missing-glyph horiz-adv-x="532" 
 />
    <glyph glyph-name=".notdef" horiz-adv-x="532" 
 />
    <glyph glyph-name="NUL" horiz-adv-x="0" 
 />
    <glyph glyph-name="nonmarkingreturn" horiz-adv-x="532" 
 />
    <glyph glyph-name="space" unicode=" " horiz-adv-x="532" 
 />
    <glyph glyph-name="lslash" unicode="&#x142;" horiz-adv-x="535" 
d="M444 735l-100 -88v-647h-154v524l-100 -88v187l100 88v696l154 86v-662l100 91v-187z" />
    <glyph glyph-name="Scaron" unicode="&#x160;" horiz-adv-x="1212" 
d="M1069 377q0 -84 -32 -157t-93 -127t-149.5 -85t-200.5 -31q-73 0 -141.5 15t-130 41.5t-114.5 63t-95 79.5l106 119q82 -79 176 -125.5t205 -46.5q72 0 129 17t97 49t61.5 77.5t21.5 102.5q0 50 -16.5 90.5t-56 76t-105.5 68.5t-164 68q-116 41 -195 82.5t-127.5 90
t-69.5 108t-21 137.5q0 86 32.5 154t91 115t141 72t183.5 25q72 0 132.5 -10.5t113 -30t99 -48t91.5 -64.5l-102 -125q-39 32 -78 57t-80 42t-86.5 25.5t-99.5 8.5q-74 0 -127 -17t-86.5 -46.5t-49.5 -67.5t-16 -80q0 -45 13 -81t50 -69.5t103.5 -67t173.5 -71.5
q119 -43 199 -86.5t128 -94t68.5 -112t20.5 -141.5zM936 1872l-252 -327h-172l-252 327h133l207 -211l207 211h129z" />
    <glyph glyph-name="scaron" unicode="&#x161;" horiz-adv-x="956" 
d="M836 281q0 -79 -31.5 -136.5t-83.5 -94.5t-118 -55t-136 -18q-112 0 -207 38t-172 100l90 112q65 -57 139 -87.5t154 -30.5q111 0 164 43.5t53 121.5q0 33 -13 60t-42.5 52.5t-78 51t-120.5 56.5q-81 34 -138.5 66t-94.5 68.5t-54.5 83t-17.5 111.5q0 61 25 112t70 87
t106.5 56t134.5 20q111 0 196.5 -32t147.5 -83l-86 -113q-32 25 -61.5 43t-61 30t-67 18t-78.5 6q-85 0 -132 -37.5t-47 -95.5q0 -34 11.5 -59.5t39 -48.5t73.5 -46.5t114 -54.5q76 -35 136 -66t101 -69t63 -87.5t22 -121.5zM806 1546l-252 -327h-172l-252 327h133l207 -211
l207 211h129z" />
    <glyph glyph-name="Yacute" unicode="&#xdd;" horiz-adv-x="1335" 
d="M1239 1434l-491 -865v-569h-160v567l-492 867h183l229 -412q21 -39 43.5 -80t43.5 -81t40.5 -77.5t34.5 -68.5q15 31 34 69t40 78t43.5 81t43.5 79l230 412h178zM1022 1814l-309 -327h-121l211 327h219z" />
    <glyph glyph-name="yacute" unicode="&#xfd;" horiz-adv-x="1087" 
d="M1006 1075l-535 -1454h-154l148 391l-383 1063h162l262 -780l37 -111l37 109l264 782h162zM890 1527l-309 -327h-121l211 327h219z" />
    <glyph glyph-name="Thorn" unicode="&#xde;" horiz-adv-x="1266" 
d="M1182 748q0 -107 -35.5 -189.5t-100 -139t-153.5 -85.5t-197 -29h-348v-305h-160v1434h160v-258h377q97 0 181 -26t145 -79t96 -133.5t35 -189.5zM1022 741q0 140 -77.5 214.5t-225.5 74.5h-371v-579h350q166 0 245 73.5t79 216.5z" />
    <glyph glyph-name="thorn" unicode="&#xfe;" horiz-adv-x="1145" 
d="M1032 555q0 -143 -31.5 -251t-86.5 -181t-129 -109.5t-158 -36.5q-101 0 -174 39.5t-129 104.5v-430l-154 -86v1802l154 86v-549q28 31 61.5 59t73.5 49t87 33.5t101 12.5q81 0 151 -31.5t122 -98t82 -169t30 -244.5zM881 553q0 101 -19 178t-54 129t-85.5 78.5
t-114.5 26.5q-86 0 -156.5 -42.5t-127.5 -113.5v-537q22 -34 52.5 -63.5t67 -51t79.5 -34t91 -12.5q135 0 201 112t66 330z" />
    <glyph glyph-name="Zcaron" unicode="&#x17d;" horiz-adv-x="1286" 
d="M1149 0h-1024v139l678 924q43 59 88.5 119t85.5 112h-162h-649v140h983v-140l-678 -923q-43 -59 -88.5 -119t-85.5 -113h162h690v-139zM985 1853l-252 -327h-172l-252 327h133l207 -211l207 211h129z" />
    <glyph glyph-name="zcaron" unicode="&#x17e;" horiz-adv-x="1008" 
d="M872 0h-761v113l587 833h-540v129h714v-112l-587 -834h587v-129zM850 1546l-252 -327h-172l-252 327h133l207 -211l207 211h129z" />
    <glyph glyph-name="onehalf" unicode="&#xbd;" 
d="M1450 707l-340 -248q-11 -8 -18 -6q-12 3 -5 20l62 164h-330v-367l164 62q16 6 21 -4q3 -8 -7 -19l-247 -340l-248 340q-9 11 -6 19q4 11 20 4l164 -62v367h-338l61 -164q8 -17 -4 -20q-7 -2 -18 6l-340 248l340 247q11 9 18 7q12 -5 4 -21l-61 -164h338v387l-164 -61
q-16 -7 -20 4q-2 7 6 18l248 340l247 -340q9 -11 7 -18q-5 -10 -21 -4l-164 61v-387h330l-62 164q-6 16 5 21q7 2 18 -7z" />
    <glyph glyph-name="onequarter" unicode="&#xbc;" 
d="M1450 707l-340 -248q-11 -8 -18 -6q-12 3 -5 20l62 164h-330v-367l164 62q16 6 21 -4q3 -8 -7 -19l-247 -340l-248 340q-9 11 -6 19q4 11 20 4l164 -62v367h-338l61 -164q8 -17 -4 -20q-7 -2 -18 6l-340 248l340 247q11 9 18 7q12 -5 4 -21l-61 -164h338v387l-164 -61
q-16 -7 -20 4q-2 7 6 18l248 340l247 -340q9 -11 7 -18q-5 -10 -21 -4l-164 61v-387h330l-62 164q-6 16 5 21q7 2 18 -7z" />
    <glyph glyph-name="onesuperior" unicode="&#xb9;" 
d="M1450 707l-340 -248q-11 -8 -18 -6q-12 3 -5 20l62 164h-330v-367l164 62q16 6 21 -4q3 -8 -7 -19l-247 -340l-248 340q-9 11 -6 19q4 11 20 4l164 -62v367h-338l61 -164q8 -17 -4 -20q-7 -2 -18 6l-340 248l340 247q11 9 18 7q12 -5 4 -21l-61 -164h338v387l-164 -61
q-16 -7 -20 4q-2 7 6 18l248 340l247 -340q9 -11 7 -18q-5 -10 -21 -4l-164 61v-387h330l-62 164q-6 16 5 21q7 2 18 -7z" />
    <glyph glyph-name="threequarters" unicode="&#xbe;" 
d="M1450 707l-340 -248q-11 -8 -18 -6q-12 3 -5 20l62 164h-330v-367l164 62q16 6 21 -4q3 -8 -7 -19l-247 -340l-248 340q-9 11 -6 19q4 11 20 4l164 -62v367h-338l61 -164q8 -17 -4 -20q-7 -2 -18 6l-340 248l340 247q11 9 18 7q12 -5 4 -21l-61 -164h338v387l-164 -61
q-16 -7 -20 4q-2 7 6 18l248 340l247 -340q9 -11 7 -18q-5 -10 -21 -4l-164 61v-387h330l-62 164q-6 16 5 21q7 2 18 -7z" />
    <glyph glyph-name="threesuperior" unicode="&#xb3;" 
d="M1450 707l-340 -248q-11 -8 -18 -6q-12 3 -5 20l62 164h-330v-367l164 62q16 6 21 -4q3 -8 -7 -19l-247 -340l-248 340q-9 11 -6 19q4 11 20 4l164 -62v367h-338l61 -164q8 -17 -4 -20q-7 -2 -18 6l-340 248l340 247q11 9 18 7q12 -5 4 -21l-61 -164h338v387l-164 -61
q-16 -7 -20 4q-2 7 6 18l248 340l247 -340q9 -11 7 -18q-5 -10 -21 -4l-164 61v-387h330l-62 164q-6 16 5 21q7 2 18 -7z" />
    <glyph glyph-name="twosuperior" unicode="&#xb2;" 
d="M1450 707l-340 -248q-11 -8 -18 -6q-12 3 -5 20l62 164h-330v-367l164 62q16 6 21 -4q3 -8 -7 -19l-247 -340l-248 340q-9 11 -6 19q4 11 20 4l164 -62v367h-338l61 -164q8 -17 -4 -20q-7 -2 -18 6l-340 248l340 247q11 9 18 7q12 -5 4 -21l-61 -164h338v387l-164 -61
q-16 -7 -20 4q-2 7 6 18l248 340l247 -340q9 -11 7 -18q-5 -10 -21 -4l-164 61v-387h330l-62 164q-6 16 5 21q7 2 18 -7z" />
    <glyph glyph-name="brokenbar" unicode="&#xa6;" 
d="M1450 707l-340 -248q-11 -8 -18 -6q-12 3 -5 20l62 164h-330v-367l164 62q16 6 21 -4q3 -8 -7 -19l-247 -340l-248 340q-9 11 -6 19q4 11 20 4l164 -62v367h-338l61 -164q8 -17 -4 -20q-7 -2 -18 6l-340 248l340 247q11 9 18 7q12 -5 4 -21l-61 -164h338v387l-164 -61
q-16 -7 -20 4q-2 7 6 18l248 340l247 -340q9 -11 7 -18q-5 -10 -21 -4l-164 61v-387h330l-62 164q-6 16 5 21q7 2 18 -7z" />
    <glyph glyph-name="minus" unicode="&#x2212;" 
d="M1450 707l-340 -248q-11 -8 -18 -6q-12 3 -5 20l62 164h-330v-367l164 62q16 6 21 -4q3 -8 -7 -19l-247 -340l-248 340q-9 11 -6 19q4 11 20 4l164 -62v367h-338l61 -164q8 -17 -4 -20q-7 -2 -18 6l-340 248l340 247q11 9 18 7q12 -5 4 -21l-61 -164h338v387l-164 -61
q-16 -7 -20 4q-2 7 6 18l248 340l247 -340q9 -11 7 -18q-5 -10 -21 -4l-164 61v-387h330l-62 164q-6 16 5 21q7 2 18 -7z" />
    <glyph glyph-name="multiply" unicode="&#xd7;" 
d="M1450 707l-340 -248q-11 -8 -18 -6q-12 3 -5 20l62 164h-330v-367l164 62q16 6 21 -4q3 -8 -7 -19l-247 -340l-248 340q-9 11 -6 19q4 11 20 4l164 -62v367h-338l61 -164q8 -17 -4 -20q-7 -2 -18 6l-340 248l340 247q11 9 18 7q12 -5 4 -21l-61 -164h338v387l-164 -61
q-16 -7 -20 4q-2 7 6 18l248 340l247 -340q9 -11 7 -18q-5 -10 -21 -4l-164 61v-387h330l-62 164q-6 16 5 21q7 2 18 -7z" />
    <glyph glyph-name="Lslash" unicode="&#x141;" horiz-adv-x="1198" 
d="M1077 0h-868v487l-127 -110v182l127 111v764h160v-639l329 280v-182l-329 -281v-467h708v-145z" />
    <glyph glyph-name="exclam" unicode="!" horiz-adv-x="539" 
d="M348 760l-37 -375h-86l-35 375v674h158v-674zM393 102q0 -25 -10.5 -47.5t-27.5 -40t-39.5 -27.5t-47.5 -10t-47.5 10t-40 27.5t-27.5 40t-10 47.5t10 48.5t27.5 41.5t40 28.5t47.5 10.5t47.5 -10.5t39.5 -28.5t27.5 -41.5t10.5 -48.5z" />
    <glyph glyph-name="quotedbl" unicode="&#x22;" horiz-adv-x="942" 
d="M770 1434l-35 -670h-121l-34 670h190zM362 1434l-34 -670h-121l-35 670h190z" />
    <glyph glyph-name="numbersign" unicode="#" horiz-adv-x="1376" 
d="M1270 360h-246v-360h-154v360h-364v-360h-154v360h-246v144h246v426h-246v143h246v361h154v-361h364v361h154v-361h246v-143h-246v-426h246v-144zM870 504v426h-364v-426h364z" />
    <glyph glyph-name="dollar" unicode="$" horiz-adv-x="1192" 
d="M1059 387q0 -77 -26.5 -143t-77.5 -116.5t-125 -83t-168 -42.5v-207h-154v207q-124 14 -227.5 66.5t-178.5 128.5l107 118q81 -78 175 -125t206 -47q71 0 128.5 15.5t97.5 45.5t61.5 74t21.5 101q0 50 -16.5 88.5t-56 72.5t-105.5 65.5t-164 66.5q-116 41 -195 81
t-128 86.5t-70 104t-21 135.5q0 77 26 138t73.5 106t115 72.5t150.5 36.5v206h154v-204q57 -5 106.5 -17.5t94 -32t85 -45.5t80.5 -57l-102 -125q-39 32 -78 57t-80 42t-86.5 25.5t-99.5 8.5q-74 0 -127 -15.5t-86.5 -42.5t-49.5 -63.5t-16 -78.5q0 -45 13 -79.5t49.5 -66
t103 -63.5t174.5 -70q119 -43 199 -85t128 -90.5t68.5 -108.5t20.5 -140z" />
    <glyph glyph-name="percent" unicode="%" horiz-adv-x="1972" 
d="M788 1012q0 -98 -24 -180.5t-68.5 -141.5t-106 -92t-136.5 -33t-136 32t-104 90.5t-66.5 140t-23.5 180.5q0 100 23.5 182.5t67 141.5t105 91.5t138.5 32.5q78 0 139.5 -32.5t104 -91t65 -140.5t22.5 -180zM1505 1434l-891 -1434h-149l891 1434h149zM1849 424
q0 -98 -24 -180.5t-68.5 -141.5t-106.5 -92t-137 -33t-136 32.5t-103.5 91t-66 140t-23.5 179.5q0 100 23.5 182.5t67 141.5t105 91.5t138.5 32.5q78 0 139.5 -32.5t104 -91t65 -140.5t22.5 -180zM647 1008q0 70 -13.5 130t-38.5 103t-60.5 67.5t-79.5 24.5q-45 0 -80 -23.5
t-60 -66.5t-38 -102t-13 -129q0 -71 13.5 -130.5t38.5 -102.5t60.5 -67t80.5 -24q44 0 79.5 26t60 69.5t37.5 101.5t13 123zM1708 420q0 70 -13.5 130t-38.5 103t-60.5 67.5t-79.5 24.5q-45 0 -80 -23.5t-60 -66.5t-38 -102t-13 -129q0 -71 13.5 -130t38.5 -102.5
t60.5 -67.5t80.5 -24q44 0 79.5 26t60 69.5t37.5 101.5t13 123z" />
    <glyph glyph-name="ampersand" unicode="&#x26;" horiz-adv-x="1319" 
d="M1247 0h-188l-115 150q-78 -81 -174.5 -127t-212.5 -46q-118 0 -200.5 31t-134 83.5t-74.5 122.5t-23 148q0 80 21.5 143t63 114.5t101 94t135.5 81.5l-49 65q-27 35 -50 69t-40 68.5t-27 71t-10 78.5q0 67 25.5 124t72.5 98t115 64t152 23q120 0 212 -34t169 -95
l-82 -127q-40 31 -76.5 53.5t-72.5 36.5t-73 20.5t-79 6.5q-48 0 -86 -12t-64.5 -33t-40.5 -51t-14 -66q0 -57 22 -102t64 -99l436 -567q29 54 53 117.5t46 134.5l135 -41q-50 -181 -144 -328zM860 256l-332 434q-67 -31 -114 -65.5t-77 -74.5t-44 -85.5t-14 -97.5
q0 -53 18 -98.5t54 -79t88.5 -53t121.5 -19.5q93 0 166.5 36.5t132.5 102.5z" />
    <glyph glyph-name="quotesingle" unicode="'" horiz-adv-x="526" 
d="M360 1434l-34 -670h-125l-35 670h194z" />
    <glyph glyph-name="parenleft" unicode="(" horiz-adv-x="713" 
d="M612 -162l-67 -63q-78 70 -152.5 157.5t-133 192t-94.5 227t-36 262.5q0 147 36 272t94.5 230.5t133 192t152.5 157.5l67 -63q-73 -75 -133 -159.5t-102.5 -180t-66 -204.5t-23.5 -234q0 -130 23.5 -241t66 -207t102.5 -180t133 -159z" />
    <glyph glyph-name="parenright" unicode=")" horiz-adv-x="713" 
d="M584 627q0 -147 -36 -272t-94.5 -230.5t-133 -192.5t-152.5 -157l-68 63q73 75 133 159.5t103 180t66.5 204.5t23.5 234q0 130 -23.5 241t-66.5 207t-103 180t-133 159l68 63q78 -71 152.5 -158t133 -191.5t94.5 -227t36 -262.5z" />
    <glyph glyph-name="asterisk" unicode="*" horiz-adv-x="1024" 
d="M877 911l-64 -110l-272 203l34 -340h-126l34 340l-272 -203l-64 110l304 138l-304 137l64 110l272 -202l-34 340h126l-34 -340l272 202l64 -110l-304 -137z" />
    <glyph glyph-name="plus" unicode="+" horiz-adv-x="1182" 
d="M1069 635h-403v-416h-150v416h-403v139h403v416h150v-416h403v-139z" />
    <glyph glyph-name="comma" unicode="," horiz-adv-x="492" 
d="M362 236l-133 -478h-106l31 478h208z" />
    <glyph glyph-name="hyphen" unicode="-" horiz-adv-x="659" 
d="M555 674h-451v149h451v-149z" />
    <glyph glyph-name="hyphen" unicode="&#xad;" horiz-adv-x="659" 
d="M555 674h-451v149h451v-149z" />
    <glyph glyph-name="period" unicode="." horiz-adv-x="492" 
d="M377 109q0 -27 -11 -51t-29 -42t-41.5 -28.5t-49.5 -10.5q-27 0 -51 10.5t-41.5 28.5t-28 42t-10.5 51t10.5 51t28 43t41.5 30t51 11q26 0 49.5 -11t41.5 -30t29 -43t11 -51z" />
    <glyph glyph-name="slash" unicode="/" horiz-adv-x="870" 
d="M817 1618l-612 -1802h-152l613 1802h151z" />
    <glyph glyph-name="zero" unicode="0" horiz-adv-x="1315" 
d="M1194 717q0 -178 -39 -316t-109.5 -232t-169.5 -143t-219 -49t-218.5 49t-169 143t-109.5 232t-39 316t39 316t109.5 232t169 142.5t218.5 48.5t219 -48.5t169.5 -142.5t109.5 -232t39 -316zM1036 717q0 139 -24.5 249.5t-72 187.5t-118.5 118t-164 41t-163.5 -41
t-118 -118t-72 -187.5t-24.5 -249.5t24.5 -249.5t72 -187.5t118 -118t163.5 -41t164 41t118.5 118t72 187.5t24.5 249.5z" />
    <glyph glyph-name="one" unicode="1" horiz-adv-x="639" 
d="M449 0h-158v1147h-260v100q59 4 109 14.5t89 32.5t64.5 56t34.5 84h121v-1434z" />
    <glyph glyph-name="two" unicode="2" horiz-adv-x="1165" 
d="M1022 0h-942q7 136 41.5 236t93.5 180t141.5 147t184.5 137q95 64 155.5 112t94.5 89.5t46.5 82t12.5 89.5q0 112 -75.5 176t-217.5 64q-62 0 -111 -10t-90.5 -27.5t-77 -42t-69.5 -53.5l-92 116q43 36 89.5 65.5t99.5 50.5t116 32.5t141 11.5q95 0 176.5 -22.5t141 -69
t93.5 -117t34 -166.5q0 -80 -19.5 -139.5t-62.5 -112t-111.5 -105.5t-165.5 -120q-109 -74 -179.5 -132.5t-113 -110.5t-63.5 -102t-31 -107h760v-152z" />
    <glyph glyph-name="three" unicode="3" horiz-adv-x="1153" 
d="M1020 412q0 -102 -35.5 -183t-101.5 -137t-160.5 -85.5t-212.5 -29.5q-68 0 -133 16.5t-122.5 44t-106 63.5t-82.5 75l106 107q68 -73 154.5 -117.5t191.5 -44.5q175 0 259.5 74t84.5 213q0 67 -24.5 117.5t-69.5 84.5t-107.5 51t-138.5 17h-94v137h98q70 0 122 18.5
t86.5 52t51.5 80t17 103.5q0 51 -15.5 95.5t-50 77.5t-91 52t-138.5 19q-91 0 -163 -37t-126 -94l-100 102q31 32 72 63t91 55t107.5 39t122.5 15q94 0 176 -22.5t143 -68.5t95.5 -114.5t34.5 -160.5q0 -66 -14.5 -117.5t-41 -92.5t-64 -71.5t-83.5 -54.5q52 -12 99.5 -37
t83.5 -66.5t57.5 -100.5t21.5 -138z" />
    <glyph glyph-name="four" unicode="4" horiz-adv-x="1280" 
d="M1190 340h-197v-340h-147v340h-766v133l741 961h172v-957h197v-137zM846 477v635v131q-17 -24 -40.5 -56t-50.5 -68t-56 -74t-56 -72l-194 -252q-22 -28 -48 -61l-52 -66t-51 -64t-44 -53h129h463z" />
    <glyph glyph-name="five" unicode="5" horiz-adv-x="1239" 
d="M1110 477q0 -130 -40 -224t-111 -155.5t-170.5 -91t-217.5 -29.5q-133 0 -246 36t-206 96l78 127q80 -51 179 -83t208 -32q92 0 161 25t115 71t69 109.5t23 140.5q0 70 -21.5 125.5t-64.5 94.5t-107 60t-149 21q-50 0 -91.5 -6.5t-77.5 -18.5t-68 -29t-62 -38l-157 61
l49 697h821v-152h-684l-35 -461q54 37 133.5 63.5t182.5 26.5q123 0 214.5 -31.5t152.5 -88.5t91.5 -137t30.5 -177z" />
    <glyph glyph-name="six" unicode="6" horiz-adv-x="1257" 
d="M1167 442q0 -115 -40.5 -202t-111.5 -145.5t-167.5 -88t-208.5 -29.5q-107 0 -200.5 31t-163.5 98.5t-110 175t-40 261.5q0 93 18 194t57.5 199.5t103.5 188.5t156 160.5t214.5 116t279.5 54.5v-141q-282 -25 -451 -178t-224 -424q34 37 74.5 67.5t90.5 53t111 35
t137 12.5q98 0 184.5 -27t151 -81.5t102 -137t37.5 -193.5zM1010 434q0 72 -24.5 128.5t-70.5 95.5t-112.5 59t-151.5 20t-153 -22t-116 -61.5t-73.5 -95.5t-25.5 -124q0 -67 26 -124t73.5 -99t114.5 -66t148 -24q89 0 157.5 23t114.5 64.5t69.5 99t23.5 126.5z" />
    <glyph glyph-name="seven" unicode="7" horiz-adv-x="1139" 
d="M975 1284q-95 -117 -179.5 -253t-149.5 -295t-104.5 -342.5t-43.5 -393.5h-162q5 193 41.5 369t98 335.5t144.5 303.5t181 274h-768v152h942v-150z" />
    <glyph glyph-name="eight" unicode="8" horiz-adv-x="1303" 
d="M1184 401q0 -104 -38 -183.5t-107.5 -133t-168.5 -80.5t-221 -27t-220 26.5t-167 79t-106 131.5t-37 183q0 143 74 234.5t210 136.5q-49 19 -90 46.5t-70.5 65t-46 85t-16.5 106.5q0 84 31 154.5t91 121.5t148.5 80t202.5 29t202 -28t147 -78.5t89.5 -120.5t30.5 -154
q0 -57 -16 -103.5t-45 -84t-70 -66t-92 -49.5q135 -44 210 -136.5t75 -234.5zM965 1071q0 45 -17 88.5t-54.5 77.5t-98 55t-146.5 21t-145.5 -20t-96 -53.5t-53 -76.5t-16.5 -88q0 -52 21.5 -96.5t62.5 -77.5t99 -51.5t132 -18.5q72 0 129.5 19t98 51.5t62.5 76t22 93.5z
M1026 397q0 63 -25 116.5t-73.5 92t-118.5 60.5t-160 22t-159.5 -21t-117 -59.5t-72 -91t-24.5 -115.5t23.5 -114.5t70.5 -88.5t117.5 -57t165.5 -20q94 0 164.5 19.5t116.5 55.5t69 87t23 114z" />
    <glyph glyph-name="nine" unicode="9" horiz-adv-x="1257" 
d="M1133 891q0 -93 -18 -194.5t-57.5 -200t-103.5 -188.5t-156 -160.5t-215 -116t-280 -54.5v142q284 25 452 176.5t224 425.5q-35 -37 -75 -67.5t-90 -53t-111.5 -35t-137.5 -12.5q-98 0 -184.5 26.5t-151 81t-102 137t-37.5 193.5q0 115 40.5 202t111.5 145.5t167.5 88
t208.5 29.5q107 0 201 -31t163.5 -98.5t110 -175t40.5 -260.5zM975 999q0 67 -26 124.5t-74 99.5t-115 66t-148 24q-89 0 -157 -23t-114 -64.5t-69.5 -99.5t-23.5 -127q0 -72 24.5 -128.5t70.5 -95t112.5 -59t150.5 -20.5q85 0 153.5 21.5t116.5 61.5t73.5 96t25.5 124z" />
    <glyph glyph-name="colon" unicode=":" horiz-adv-x="492" 
d="M377 963q0 -27 -11 -51t-29 -42t-41.5 -28.5t-49.5 -10.5q-27 0 -51 10.5t-41.5 28.5t-28 42t-10.5 51t10.5 51t28 43t41.5 30t51 11q26 0 49.5 -11t41.5 -30t29 -43t11 -51zM377 109q0 -27 -11 -51t-29 -42t-41.5 -28.5t-49.5 -10.5q-27 0 -51 10.5t-41.5 28.5t-28 42
t-10.5 51t10.5 51t28 43t41.5 30t51 11q26 0 49.5 -11t41.5 -30t29 -43t11 -51z" />
    <glyph glyph-name="semicolon" unicode=";" horiz-adv-x="492" 
d="M377 963q0 -27 -11 -51t-29 -42t-41.5 -28.5t-49.5 -10.5q-27 0 -51 10.5t-41.5 28.5t-28 42t-10.5 51t10.5 51t28 43t41.5 30t51 11q26 0 49.5 -11t41.5 -30t29 -43t11 -51zM348 236l-133 -478h-106l30 478h209z" />
    <glyph glyph-name="less" unicode="&#x3c;" horiz-adv-x="788" 
d="M647 127l-530 508v139l530 508v-190l-409 -385l409 -385v-195z" />
    <glyph glyph-name="equal" unicode="=" horiz-adv-x="1182" 
d="M1018 856h-854v143h854v-143zM1018 410h-854v143h854v-143z" />
    <glyph glyph-name="greater" unicode="&#x3e;" horiz-adv-x="788" 
d="M672 635l-531 -508v190l410 385l-410 385v195l531 -508v-139z" />
    <glyph glyph-name="question" unicode="?" horiz-adv-x="1149" 
d="M1012 1104q0 -75 -17 -128.5t-50 -95t-80 -76t-107 -71.5q-51 -32 -82 -60t-47.5 -65t-21.5 -89.5t-5 -133.5h-158q0 68 3 120.5t12 93.5t25.5 73.5t43.5 61.5t65.5 58t92.5 62q40 25 71 48.5t52 51t32 61t11 77.5q0 49 -21 89.5t-59 69t-91.5 44.5t-117.5 16
q-113 0 -202 -42.5t-168 -115.5l-103 113q41 40 92 74.5t111 60t129 40.5t147 15q97 0 178.5 -22t140.5 -66.5t91.5 -110.5t32.5 -153zM645 102q0 -25 -10.5 -47.5t-27.5 -40t-39.5 -27.5t-47.5 -10t-47.5 10t-40 27.5t-27.5 40t-10 47.5t10 48.5t27.5 41.5t40 28.5
t47.5 10.5t47.5 -10.5t39.5 -28.5t27.5 -41.5t10.5 -48.5z" />
    <glyph glyph-name="at" unicode="@" horiz-adv-x="1712" 
d="M1595 737q0 -116 -21.5 -197t-61.5 -132t-95.5 -74t-124.5 -23q-38 0 -72 10t-62 27.5t-49.5 41t-35.5 50.5q-46 -59 -113.5 -94t-152.5 -35q-67 0 -124 17t-99 52t-66 87.5t-24 124.5q0 65 25.5 115t70 84t105 51.5t130.5 17.5q81 0 135 -16t93 -39v121q0 66 -49.5 98.5
t-161.5 32.5q-56 0 -108.5 -13t-100.5 -36l-45 88q62 31 127.5 47t140.5 16q68 0 124 -12t95.5 -38.5t61.5 -70t22 -106.5v-395q0 -28 8.5 -52.5t26 -42.5t45 -28.5t66.5 -10.5q41 0 75.5 17.5t59.5 57t39 103t14 154.5q0 140 -48 255t-133 197.5t-201.5 127.5t-254.5 45
t-255 -45.5t-202 -129.5t-132.5 -202t-47.5 -262q0 -146 47.5 -265.5t132.5 -204t202 -131t255 -46.5q82 0 148 15.5t131 47.5l36 -90q-44 -20 -82 -33.5t-75 -21.5t-75.5 -11.5t-82.5 -3.5q-107 0 -203.5 25t-178.5 71.5t-148 113t-112.5 148.5t-71.5 178.5t-25 203.5
t25 203.5t71.5 178.5t112.5 148t148 112.5t178.5 71.5t203.5 25q109 0 206 -26t179 -73.5t148 -114t111.5 -146.5t70 -171t24.5 -188zM1053 537v165q-39 23 -98 41.5t-140 18.5q-46 0 -84 -12t-65.5 -34t-42.5 -52t-15 -66q0 -90 50 -137t159 -47q36 0 71 9t65.5 25.5t56 39
t43.5 49.5z" />
    <glyph glyph-name="A" unicode="A" horiz-adv-x="1389" 
d="M1280 0h-168l-123 365h-592l-125 -365h-163l497 1434h176zM940 510l-158 471q-11 35 -24 75.5t-25.5 79t-22.5 72t-16 56.5q-5 -22 -15 -55.5t-22 -72.5t-26 -80.5t-27 -78.5l-158 -467h494z" />
    <glyph glyph-name="B" unicode="B" horiz-adv-x="1282" 
d="M1169 424q0 -212 -120.5 -318t-346.5 -106h-514v1434h525q85 0 156.5 -21.5t123 -66t80.5 -112t29 -159.5q0 -59 -15.5 -106t-43 -83t-65.5 -62t-83 -42q49 -13 98 -38t88 -67t63.5 -104t24.5 -149zM942 1069q0 49 -14.5 89.5t-43.5 69t-73 44.5t-104 16h-359v-446h346
q67 0 114 18t77 48.5t43.5 72t13.5 88.5zM1010 416q0 67 -21.5 119.5t-61.5 88.5t-96 55t-126 19h-357v-553h365q81 0 137.5 19.5t92 54.5t51.5 85t16 112z" />
    <glyph glyph-name="C" unicode="C" horiz-adv-x="1286" 
d="M1176 215q-39 -53 -88 -96.5t-107.5 -75t-127 -49t-146.5 -17.5q-88 0 -165 25.5t-141.5 72.5t-115 113.5t-86 148.5t-54 177.5t-18.5 200.5q0 160 43 295.5t120.5 234.5t185 155t237.5 56q148 0 259.5 -56t196.5 -173l-127 -97q-35 47 -69.5 81t-73.5 56.5t-85.5 33
t-104.5 10.5q-92 0 -169.5 -43.5t-133.5 -122t-87.5 -187.5t-31.5 -239q0 -131 32 -240.5t89 -188.5t134.5 -123t168.5 -44q116 0 200.5 49.5t153.5 138.5z" />
    <glyph glyph-name="D" unicode="D" horiz-adv-x="1348" 
d="M1221 727q0 -195 -52.5 -333t-144.5 -225.5t-216.5 -128t-268.5 -40.5h-351v1434h379q141 0 261 -41.5t207.5 -127.5t136.5 -220t49 -318zM1061 721q0 137 -32.5 243t-96.5 178t-158.5 109t-218.5 37h-207v-1143h211q116 0 209 32t158 101.5t100 178.5t35 264z" />
    <glyph glyph-name="E" unicode="E" horiz-adv-x="1202" 
d="M1085 0h-897v1434h867v-146h-707v-450h410v-146h-410v-547h737v-145z" />
    <glyph glyph-name="F" unicode="F" horiz-adv-x="1122" 
d="M1030 1288h-682v-475h393v-145h-393v-668h-160v1434h842v-146z" />
    <glyph glyph-name="G" unicode="G" horiz-adv-x="1350" 
d="M1237 571q0 -148 -40 -259.5t-111 -185.5t-168 -111.5t-211 -37.5q-88 0 -165 25.5t-141.5 72.5t-115 113.5t-86 148.5t-54 177.5t-18.5 200.5q0 160 43 295.5t120.5 234.5t185 155t237.5 56q148 0 259.5 -56t196.5 -173l-127 -97q-35 47 -69.5 81t-73.5 56.5t-85.5 33
t-104.5 10.5q-92 0 -169.5 -43.5t-133.5 -122t-87.5 -187.5t-31.5 -239q0 -131 32.5 -240.5t89.5 -188.5t134.5 -123t167.5 -44q180 0 275 108t95 320v12h-258v148h414v-140z" />
    <glyph glyph-name="H" unicode="H" horiz-adv-x="1409" 
d="M1221 0h-160v676h-713v-676h-160v1434h160v-613h713v613h160v-1434z" />
    <glyph glyph-name="I" unicode="I" horiz-adv-x="557" 
d="M358 0h-159v1434h159v-1434z" />
    <glyph glyph-name="J" unicode="J" horiz-adv-x="1184" 
d="M1006 549q0 -287 -121.5 -429.5t-368.5 -142.5q-91 0 -162.5 22.5t-127 67t-96.5 109t-69 148.5l152 51q21 -59 48 -105.5t64 -79t85 -50t112 -17.5q86 0 147.5 25t100.5 78t57.5 134.5t18.5 194.5v879h160v-885z" />
    <glyph glyph-name="K" unicode="K" horiz-adv-x="1315" 
d="M1227 0h-183l-423 764l-273 -352v-412h-160v1434h160v-625v-193q14 20 40.5 56t56.5 77t60.5 80.5t51.5 67.5l416 537h174l-420 -539z" />
    <glyph glyph-name="L" unicode="L" horiz-adv-x="1178" 
d="M1057 0h-869v1434h160v-1289h709v-145z" />
    <glyph glyph-name="M" unicode="M" horiz-adv-x="1614" 
d="M1425 0h-153v971v153q-6 -21 -15.5 -49.5t-21.5 -61t-24.5 -65.5t-24.5 -61l-383 -924l-377 924q-12 28 -24.5 60.5t-24 65t-21 61.5t-14.5 50v-153v-971h-154v1434h179l338 -859q13 -32 28 -71.5t29.5 -78t26.5 -72.5t18 -56q7 23 19 57.5t26.5 73t29.5 77.5t27 70
l342 859h174v-1434z" />
    <glyph glyph-name="N" unicode="N" horiz-adv-x="1409" 
d="M1221 0h-150l-627 981q-11 18 -26 43.5t-29.5 51t-27 48.5t-19.5 37v-98v-1063h-154v1434h156l621 -1000q11 -18 26 -43.5t29.5 -51t27 -48.5t19.5 -37v98v1082h154v-1434z" />
    <glyph glyph-name="O" unicode="O" horiz-adv-x="1444" 
d="M1317 719q0 -162 -43.5 -298t-122 -235t-189 -154t-243.5 -55q-134 0 -243 54.5t-186.5 152.5t-120 233.5t-42.5 297.5t43 298t121.5 234.5t188 153.5t243.5 55q133 0 242.5 -54.5t187.5 -152t121 -233t43 -297.5zM1157 715q0 135 -33.5 245t-92.5 188t-139.5 120.5
t-174.5 42.5q-93 0 -172 -42t-136 -119t-89.5 -186.5t-32.5 -244.5t33.5 -245t92 -188t138.5 -120.5t174 -42.5q93 0 172 41.5t137 119t90.5 187t32.5 244.5z" />
    <glyph glyph-name="P" unicode="P" horiz-adv-x="1266" 
d="M1182 1006q0 -107 -35.5 -189.5t-100 -139t-153.5 -85.5t-197 -29h-348v-563h-160v1434h537q97 0 181 -26t145 -79t96 -133.5t35 -189.5zM1022 999q0 140 -77.5 214.5t-225.5 74.5h-371v-579h350q166 0 245 73.5t79 216.5z" />
    <glyph glyph-name="Q" unicode="Q" horiz-adv-x="1444" 
d="M1317 719q0 -100 -17.5 -190.5t-50 -169.5t-79.5 -144t-105 -113l92 -149l-131 -78l-90 148q-50 -22 -104 -34t-113 -12q-134 0 -243 54.5t-186.5 152.5t-120 233.5t-42.5 297.5t43 298t121.5 234.5t188 153.5t243.5 55q133 0 242.5 -54.5t187.5 -152t121 -233t43 -297.5
zM1157 715q0 135 -33.5 245t-92.5 188t-139.5 120.5t-174.5 42.5q-93 0 -172 -42t-136 -119t-89.5 -186.5t-32.5 -244.5t33.5 -245t92 -188t138.5 -120.5t174 -42.5q73 0 135 24l-117 191l131 78l115 -189q78 75 123 197.5t45 290.5z" />
    <glyph glyph-name="R" unicode="R" horiz-adv-x="1331" 
d="M1202 1028q0 -84 -24 -151.5t-68 -118.5t-106.5 -85t-139.5 -50l316 -623h-185l-307 610h-340v-610h-160v1434h568q94 0 175.5 -24.5t141.5 -74.5t94.5 -126.5t34.5 -180.5zM1042 1022q0 133 -74.5 199.5t-217.5 66.5h-402v-534h381q161 0 237 66t76 202z" />
    <glyph glyph-name="S" unicode="S" horiz-adv-x="1212" 
d="M1069 377q0 -84 -32 -157t-93 -127t-149.5 -85t-200.5 -31q-73 0 -141.5 15t-130 41.5t-114.5 63t-95 79.5l106 119q82 -79 176 -125.5t205 -46.5q72 0 129 17t97 49t61.5 77.5t21.5 102.5q0 50 -16.5 90.5t-56 76t-105.5 68.5t-164 68q-116 41 -195 82.5t-127.5 90
t-69.5 108t-21 137.5q0 86 32.5 154t91 115t141 72t183.5 25q72 0 132.5 -10.5t113 -30t99 -48t91.5 -64.5l-102 -125q-39 32 -78 57t-80 42t-86.5 25.5t-99.5 8.5q-74 0 -127 -17t-86.5 -46.5t-49.5 -67.5t-16 -80q0 -45 13 -81t50 -69.5t103.5 -67t173.5 -71.5
q119 -43 199 -86.5t128 -94t68.5 -112t20.5 -141.5z" />
    <glyph glyph-name="T" unicode="T" horiz-adv-x="1204" 
d="M1104 1288h-422v-1288h-160v1288h-422v146h1004v-146z" />
    <glyph glyph-name="U" unicode="U" horiz-adv-x="1389" 
d="M1210 586q0 -299 -128 -454t-386 -155t-388 152.5t-130 452.5v852h160v-848q0 -234 90 -348.5t277 -114.5q93 0 158.5 28t107 85t61 143.5t19.5 202.5v852h159v-848z" />
    <glyph glyph-name="V" unicode="V" horiz-adv-x="1368" 
d="M1260 1434l-488 -1434h-176l-487 1434h167l320 -981q11 -32 24 -73t25.5 -81.5t23 -75t15.5 -53.5q5 19 16 54.5t24.5 76.5t26.5 82.5t23 73.5l322 977h164z" />
    <glyph glyph-name="W" unicode="W" horiz-adv-x="1753" 
d="M1636 1434l-286 -1434h-181l-225 918q-8 35 -17.5 77.5t-19 86t-18.5 85t-15 74.5q-6 -33 -14 -74t-17.5 -84t-19 -85.5t-18.5 -79.5l-225 -918h-177l-286 1434h159l168 -922q6 -35 13.5 -79.5l15 -89t14 -84.5t11.5 -66q4 26 12 65.5t17.5 83.5t19.5 87.5t18 78.5
l228 926h172l227 -926q8 -35 18 -78.5t19.5 -87.5t17.5 -83.5t13 -65.5q4 26 10.5 66t14 84.5l15 89t13.5 79.5l168 922h155z" />
    <glyph glyph-name="X" unicode="X" horiz-adv-x="1294" 
d="M1178 0h-181l-219 375q-40 69 -72.5 126t-58.5 111q-29 -55 -60 -112t-71 -125l-223 -375h-176l446 745l-409 689h180l184 -314q40 -68 71 -125t60 -112q26 54 58.5 111t72.5 126l185 314h176l-410 -684z" />
    <glyph glyph-name="Y" unicode="Y" horiz-adv-x="1335" 
d="M1239 1434l-491 -865v-569h-160v567l-492 867h183l229 -412q21 -39 43.5 -80t43.5 -81t40.5 -77.5t34.5 -68.5q15 31 34 69t40 78t43.5 81t43.5 79l230 412h178z" />
    <glyph glyph-name="Z" unicode="Z" horiz-adv-x="1286" 
d="M1149 0h-1024v139l678 924q43 59 88.5 119t85.5 112h-162h-649v140h983v-140l-678 -923q-43 -59 -88.5 -119t-85.5 -113h162h690v-139z" />
    <glyph glyph-name="bracketleft" unicode="[" horiz-adv-x="721" 
d="M592 -225h-397v1659h397v-125h-248v-1409h248v-125z" />
    <glyph glyph-name="backslash" unicode="\" horiz-adv-x="870" 
d="M817 -184h-151l-613 1802h152z" />
    <glyph glyph-name="bracketright" unicode="]" horiz-adv-x="721" 
d="M526 -225h-397v125h248v1409h-248v125h397v-1659z" />
    <glyph glyph-name="asciicircum" unicode="^" horiz-adv-x="1143" 
d="M1047 782h-177l-301 484l-301 -484h-172l418 652h115z" />
    <glyph glyph-name="underscore" unicode="_" horiz-adv-x="1024" 
d="M1024 -313h-1024v129h1024v-129z" />
    <glyph glyph-name="grave" unicode="`" horiz-adv-x="1024" 
d="M668 1219h-121l-309 327h219z" />
    <glyph glyph-name="a" unicode="a" horiz-adv-x="1104" 
d="M940 0h-154v131q-28 -31 -62.5 -59t-76 -49t-90.5 -33.5t-106 -12.5q-63 0 -125 17t-110.5 57.5t-79 106.5t-30.5 164q0 90 34.5 155t91.5 107t131.5 62t154.5 20q82 0 151 -18t117 -44v127q0 121 -57 179.5t-176 58.5q-85 0 -156 -22t-137 -60l-57 125q71 38 163 62
t197 24q87 0 157 -19.5t118.5 -61.5t75 -108t26.5 -159v-750zM786 264v217q-26 15 -54 26.5t-61 19.5t-72.5 12t-88.5 4q-119 0 -185.5 -54.5t-66.5 -156.5q0 -60 16 -103.5t44.5 -71.5t69 -41.5t89.5 -13.5q52 0 97.5 12.5t84.5 34.5t71 51.5t56 63.5z" />
    <glyph glyph-name="b" unicode="b" horiz-adv-x="1145" 
d="M1032 555q0 -143 -31.5 -251t-86.5 -181t-129 -109.5t-158 -36.5q-101 0 -174 39.5t-129 104.5v-121h-154v1407l154 86v-549q28 31 61.5 59t73.5 49t87 33.5t101 12.5q81 0 151 -31.5t122 -98t82 -169t30 -244.5zM881 553q0 101 -19 178t-54 129t-85.5 78.5t-114.5 26.5
q-86 0 -156.5 -42.5t-127.5 -113.5v-537q22 -34 52.5 -63.5t67 -51t79.5 -34t91 -12.5q135 0 201 112t66 330z" />
    <glyph glyph-name="c" unicode="c" horiz-adv-x="1014" 
d="M915 971l-92 -115q-29 26 -58 46.5t-59.5 34.5t-65 21t-75.5 7q-63 0 -117.5 -28t-94 -81.5t-62.5 -132t-23 -178.5q0 -99 20.5 -179t59.5 -137t95.5 -87.5t127.5 -30.5q39 0 72.5 8t63 22.5t57 35.5t55.5 48l92 -98q-34 -35 -71 -62.5t-79 -47t-90.5 -30t-105.5 -10.5
q-88 0 -169.5 34t-144.5 103t-100.5 173.5t-37.5 244.5q0 149 40.5 256t106 176t148.5 101.5t167 32.5q110 0 193.5 -36t146.5 -91z" />
    <glyph glyph-name="d" unicode="d" horiz-adv-x="1145" 
d="M975 0h-154v131q-29 -31 -62.5 -59t-73 -49t-86.5 -33.5t-101 -12.5q-81 0 -151 31.5t-122 98t-82 169t-30 244.5q0 143 31.5 251t86.5 181t129 109.5t158 36.5q51 0 94 -10.5t80 -29.5t68.5 -45.5t60.5 -58.5v453l154 86v-1493zM821 266v537q-22 34 -52.5 63.5
t-67.5 51.5t-80 34.5t-91 12.5q-134 0 -200 -112.5t-66 -330.5q0 -203 72.5 -307t200.5 -104q86 0 156.5 42t127.5 113z" />
    <glyph glyph-name="e" unicode="e" horiz-adv-x="1106" 
d="M989 569q0 -28 -1.5 -46.5t-4.5 -37.5h-717q6 -86 28.5 -155t60.5 -118t91 -75t119 -26q47 0 85.5 6.5t73 19.5t68 32t70.5 44l72 -111q-48 -31 -91.5 -54.5t-88.5 -39t-94.5 -23.5t-110.5 -8q-49 0 -100.5 12.5t-100 40.5t-91.5 72t-75 107t-50.5 146t-18.5 188
q0 128 33.5 231t92.5 175t140.5 110.5t177.5 38.5q105 0 186 -39.5t135.5 -109.5t82.5 -167.5t28 -212.5zM846 610q-5 78 -24.5 143.5t-55 112.5t-88.5 73t-123 26q-60 0 -110 -21.5t-87.5 -66t-61 -111t-30.5 -156.5h580z" />
    <glyph glyph-name="f" unicode="f" horiz-adv-x="729" 
d="M633 1323q-26 12 -57 18.5t-68 6.5q-24 0 -44.5 -5t-35 -18t-23 -34.5t-8.5 -55.5v-160h211v-129h-211v-946h-153v946h-148v129h148v148q0 72 18.5 122t52 81.5t80.5 46t103 14.5q46 0 76.5 -4.5t58.5 -14.5v-145z" />
    <glyph glyph-name="g" unicode="g" horiz-adv-x="1145" 
d="M975 96q0 -121 -29 -211t-94 -151t-168.5 -93t-253.5 -36l-49 116q134 4 219.5 25t134.5 63t67.5 107.5t18.5 159.5v55q-29 -31 -62.5 -59t-73 -49t-86.5 -33.5t-101 -12.5q-81 0 -151 31.5t-122 98t-82 169t-30 244.5q0 143 31.5 251t86.5 181t129 109.5t158 36.5
q51 0 94 -10.5t80 -29.5t68.5 -45.5t60.5 -58.5v121h154v-979zM821 266v537q-22 34 -52.5 63.5t-67.5 51.5t-80 34.5t-91 12.5q-134 0 -200 -112.5t-66 -330.5q0 -203 72.5 -307t200.5 -104q86 0 156.5 42t127.5 113z" />
    <glyph glyph-name="h" unicode="h" horiz-adv-x="1161" 
d="M997 0h-153v629q0 174 -62 255t-192 81q-56 0 -104.5 -19.5t-84.5 -60.5t-56.5 -104.5t-20.5 -151.5v-629h-154v1407l154 86v-549q23 34 53 62t67.5 48.5t81.5 32t95 11.5q85 0 154.5 -25.5t118.5 -79.5t76 -138t27 -200v-655z" />
    <glyph glyph-name="i" unicode="i" horiz-adv-x="514" 
d="M367 1376q0 -22 -8.5 -41.5t-23.5 -34.5t-34.5 -23.5t-40.5 -8.5q-24 0 -44.5 8.5t-35.5 23.5t-24 34.5t-9 41.5q0 23 9 43.5t24 35.5t35.5 23.5t44.5 8.5q21 0 40.5 -8.5t34.5 -23.5t23.5 -35.5t8.5 -43.5zM334 0h-154v1075h154v-1075z" />
    <glyph glyph-name="j" unicode="j" horiz-adv-x="514" 
d="M367 1376q0 -22 -8.5 -41.5t-23.5 -34.5t-34.5 -23.5t-40.5 -8.5q-24 0 -44.5 8.5t-35.5 23.5t-24 34.5t-9 41.5q0 23 9 43.5t24 35.5t35.5 23.5t44.5 8.5q21 0 40.5 -8.5t34.5 -23.5t23.5 -35.5t8.5 -43.5zM334 25q0 -92 -11.5 -160t-46 -117.5t-96.5 -83.5t-164 -59
l-51 114q73 22 116 45.5t65 57t28 82.5t6 123v1048h154v-1050z" />
    <glyph glyph-name="k" unicode="k" horiz-adv-x="1034" 
d="M948 0h-166l-272 565l-186 -256v-309h-154v1407l154 86v-928v-55l43 65l352 500h172l-283 -381z" />
    <glyph glyph-name="l" unicode="l" horiz-adv-x="514" 
d="M334 0h-154v1407l154 86v-1493z" />
    <glyph glyph-name="m" unicode="m" horiz-adv-x="1737" 
d="M1573 0h-154v629q0 92 -14.5 156t-43 104t-72 58t-101.5 18q-55 0 -99 -19t-75.5 -60t-48.5 -104.5t-17 -152.5v-629h-153v629q0 92 -15 156t-44.5 104t-73 58t-99.5 18q-55 0 -99.5 -19t-75.5 -60t-47.5 -104.5t-16.5 -152.5v-629h-154v1075h154v-131q42 69 109 111.5
t163 42.5q57 0 103 -14.5t82.5 -39.5t63.5 -58.5t46 -72.5q24 39 53 72.5t68 58.5t89 39.5t116 14.5q82 0 148 -25t112 -78.5t71 -137.5t25 -202v-655z" />
    <glyph glyph-name="n" unicode="n" horiz-adv-x="1161" 
d="M997 0h-153v629q0 174 -62 255t-192 81q-56 0 -104.5 -19.5t-84.5 -60.5t-56.5 -104.5t-20.5 -151.5v-629h-154v1075h154v-131q23 34 53 62t67.5 48.5t81.5 32t95 11.5q85 0 154.5 -25.5t118.5 -79.5t76 -138t27 -200v-655z" />
    <glyph glyph-name="o" unicode="o" horiz-adv-x="1159" 
d="M1047 545q0 -137 -37 -243t-100.5 -178t-149.5 -109.5t-185 -37.5q-98 0 -182.5 36t-146.5 107t-97.5 175.5t-35.5 241.5q0 136 36.5 241t100.5 176t150 107.5t184 36.5t182.5 -35t147 -105t98 -173.5t35.5 -239.5zM893 541q0 106 -23 185.5t-64 132.5t-98.5 79.5
t-127.5 26.5t-127.5 -26.5t-98.5 -79.5t-63.5 -132.5t-22.5 -185.5t22.5 -186.5t63.5 -134.5t98.5 -81.5t127.5 -27.5t127.5 27.5t98.5 81.5t64 134.5t23 186.5z" />
    <glyph glyph-name="p" unicode="p" horiz-adv-x="1145" 
d="M1032 555q0 -143 -31.5 -251t-86.5 -181t-129 -109.5t-158 -36.5q-101 0 -174 39.5t-129 104.5v-430l-154 -86v1470h154v-131q28 31 61.5 59t73.5 49t87 33.5t101 12.5q81 0 151 -31.5t122 -98t82 -169t30 -244.5zM881 553q0 101 -19 178t-54 129t-85.5 78.5t-114.5 26.5
q-86 0 -156.5 -42.5t-127.5 -113.5v-537q22 -34 52.5 -63.5t67 -51t79.5 -34t91 -12.5q135 0 201 112t66 330z" />
    <glyph glyph-name="q" unicode="q" horiz-adv-x="1145" 
d="M975 -309l-154 -86v526q-29 -31 -62.5 -59t-73 -49t-86.5 -33.5t-101 -12.5q-81 0 -151 31.5t-122 98t-82 169t-30 244.5q0 143 31.5 251t86.5 181t129 109.5t158 36.5q51 0 94 -10.5t80 -29.5t68.5 -45.5t60.5 -58.5v121h154v-1384zM821 266v537q-22 34 -52.5 63.5
t-67.5 51.5t-80 34.5t-91 12.5q-134 0 -200 -112.5t-66 -330.5q0 -203 72.5 -307t200.5 -104q86 0 156.5 42t127.5 113z" />
    <glyph glyph-name="r" unicode="r" horiz-adv-x="834" 
d="M758 1071l-39 -156q-32 19 -70 30t-92 11q-112 0 -172.5 -85.5t-60.5 -239.5v-631h-154v1075h154v-133q18 32 46 60.5t62.5 49.5t74.5 33.5t83 12.5q60 0 100 -7.5t68 -19.5z" />
    <glyph glyph-name="s" unicode="s" horiz-adv-x="956" 
d="M836 281q0 -79 -31.5 -136.5t-83.5 -94.5t-118 -55t-136 -18q-112 0 -207 38t-172 100l90 112q65 -57 139 -87.5t154 -30.5q111 0 164 43.5t53 121.5q0 33 -13 60t-42.5 52.5t-78 51t-120.5 56.5q-81 34 -138.5 66t-94.5 68.5t-54.5 83t-17.5 111.5q0 61 25 112t70 87
t106.5 56t134.5 20q111 0 196.5 -32t147.5 -83l-86 -113q-32 25 -61.5 43t-61 30t-67 18t-78.5 6q-85 0 -132 -37.5t-47 -95.5q0 -34 11.5 -59.5t39 -48.5t73.5 -46.5t114 -54.5q76 -35 136 -66t101 -69t63 -87.5t22 -121.5z" />
    <glyph glyph-name="t" unicode="t" horiz-adv-x="762" 
d="M633 946h-266v-700q0 -36 5.5 -60.5t18 -40t33 -22t51.5 -6.5q47 0 81 7.5t71 22.5l-11 -133q-45 -18 -90.5 -27.5t-107.5 -9.5q-50 0 -88 13t-64 42t-39.5 75.5t-13.5 113.5v725h-133v129h133v332l154 86v-418h266v-129z" />
    <glyph glyph-name="u" unicode="u" horiz-adv-x="1161" 
d="M991 0h-153v131q-47 -68 -121 -111t-176 -43q-86 0 -155.5 26t-118.5 80t-76 137.5t-27 199.5v655h153v-629q0 -174 62 -254.5t192 -80.5q56 0 105 19.5t85 60t56.5 104t20.5 151.5v629h153v-1075z" />
    <glyph glyph-name="v" unicode="v" horiz-adv-x="1069" 
d="M987 1075l-385 -1075h-135l-385 1075h164l274 -846l17 -51l16 51l274 846h160z" />
    <glyph glyph-name="w" unicode="w" horiz-adv-x="1495" 
d="M1399 1075l-285 -1075h-141l-195 721q-4 14 -8.5 34t-9 41t-8.5 41.5t-7 34.5q-2 -14 -6 -34.5t-8.5 -41.5t-9 -41t-8.5 -34l-195 -721h-137l-285 1075h158l168 -710q3 -14 7 -34t8 -41.5t8.5 -41.5t7.5 -35q3 15 7.5 35t9 41.5t9 41.5t8.5 34l193 710h139l193 -710
q4 -14 8.5 -34t9.5 -41.5t9.5 -41.5t7.5 -35l7 35t8 41.5t8 41.5t7 34l168 710h154z" />
    <glyph glyph-name="x" unicode="x" horiz-adv-x="1032" 
d="M928 0h-170l-213 373l-33 59l-33 -59l-215 -373h-160l332 555l-309 520h170l190 -334l33 -59l33 59l192 334h160l-309 -516z" />
    <glyph glyph-name="y" unicode="y" horiz-adv-x="1087" 
d="M1006 1075l-535 -1454h-154l148 391l-383 1063h162l262 -780l37 -111l37 109l264 782h162z" />
    <glyph glyph-name="z" unicode="z" horiz-adv-x="1008" 
d="M872 0h-761v113l587 833h-540v129h714v-112l-587 -834h587v-129z" />
    <glyph glyph-name="braceleft" unicode="{" horiz-adv-x="813" 
d="M705 -225q-217 6 -317.5 112.5t-100.5 323.5v176q0 45 -6 73.5t-20 45t-37.5 23t-57.5 6.5h-49v143h49q34 0 57.5 6.5t37.5 23t20 45t6 72.5v183q0 216 100.5 323t317.5 113v-129q-72 -8 -122.5 -27.5t-82.5 -54t-47 -86t-15 -121.5v-143q0 -64 -6 -109.5t-20 -77.5
t-37 -54t-58 -38q35 -16 58 -37.5t37 -54t20 -77.5t6 -109v-133q0 -71 15 -122t47 -85.5t82.5 -54.5t122.5 -27v-129z" />
    <glyph glyph-name="bar" unicode="|" horiz-adv-x="623" 
d="M385 -379h-147v2017h147v-2017z" />
    <glyph glyph-name="braceright" unicode="}" horiz-adv-x="813" 
d="M696 541h-49q-35 0 -58 -6.5t-37 -23t-20 -45t-6 -73.5v-182q0 -217 -100.5 -323.5t-316.5 -112.5v129q71 7 121.5 27t82.5 54.5t47 85.5t15 122v143q0 64 6 109t20 77.5t37 54t58 37.5q-35 16 -58 38t-37 54t-20 77.5t-6 109.5v133q0 70 -15 121.5t-47 86t-82.5 54
t-121.5 27.5v129q216 -6 316.5 -113t100.5 -323v-177q0 -44 6 -72.5t20 -45t37 -23t58 -6.5h49v-143z" />
    <glyph glyph-name="asciitilde" unicode="~" horiz-adv-x="1130" 
d="M1042 864q-26 -65 -54.5 -113t-63 -80.5t-77.5 -48.5t-97 -16q-31 0 -56.5 5t-48 14.5t-44 22.5t-44.5 28q-63 42 -104 61t-72 19q-28 0 -49 -9t-39 -28.5t-34.5 -50t-35.5 -74.5l-135 61q26 64 55 112.5t63.5 81t77.5 48.5t97 16q29 0 53.5 -4.5t47 -13.5t45 -22
t46.5 -29q30 -19 54.5 -34t45.5 -25t39.5 -15.5t37.5 -5.5q27 0 47.5 8t38 27t34 50t37.5 77z" />
    <glyph glyph-name="Adieresis" unicode="&#xc4;" horiz-adv-x="1389" 
d="M1280 0h-168l-123 365h-592l-125 -365h-163l497 1434h176zM940 510l-158 471q-11 35 -24 75.5t-25.5 79t-22.5 72t-16 56.5q-5 -22 -15 -55.5t-22 -72.5t-26 -80.5t-27 -78.5l-158 -467h494zM1007 1655q0 -23 -9 -43.5t-24 -36t-35.5 -24.5t-43.5 -9t-43.5 9t-36 24.5
t-24.5 36t-9 43.5t9 43.5t24.5 36.5t36 25t43.5 9t43.5 -9t35.5 -25t24 -36.5t9 -43.5zM610 1655q0 -23 -9 -43.5t-24 -36t-35.5 -24.5t-42.5 -9q-24 0 -44.5 9t-36 24.5t-24.5 36t-9 43.5t9 43.5t24.5 36.5t36 25t44.5 9q22 0 42.5 -9t35.5 -25t24 -36.5t9 -43.5z" />
    <glyph glyph-name="Aring" unicode="&#xc5;" horiz-adv-x="1389" 
d="M1280 0h-168l-123 365h-592l-125 -365h-163l471 1348q-59 31 -93 87t-34 128q0 50 18 93t49.5 75t75.5 50.5t96 18.5t96 -18.5t76 -50.5t50 -75t18 -93q0 -70 -34 -126t-91 -87zM836 1563q0 63 -39 104t-105 41t-104.5 -41t-38.5 -104q0 -32 10 -59.5t28.5 -47t45 -30.5
t59.5 -11t59.5 11t45.5 30.5t29 47t10 59.5zM940 510l-158 471q-11 35 -24 75.5t-25.5 79t-22.5 72t-16 56.5q-5 -22 -15 -55.5t-22 -72.5t-26 -80.5t-27 -78.5l-158 -467h494z" />
    <glyph glyph-name="Ccedilla" unicode="&#xc7;" horiz-adv-x="1286" 
d="M1176 215q-38 -51 -85 -94t-103 -74t-122 -49t-141 -21l-27 -81q22 14 49 21t64 7q21 0 45 -7.5t44.5 -24t34 -43.5t13.5 -66q0 -50 -19.5 -84t-53 -55t-77.5 -30t-93 -9q-63 0 -125.5 19t-116.5 54l39 66q85 -55 188 -55q40 0 66.5 7t42 19t22 28t6.5 34q0 31 -16.5 49
t-48.5 18q-60 0 -98 -37l-74 29l45 146q-116 15 -210 76.5t-160 158.5t-102 224t-36 274q0 160 43 295.5t120.5 234.5t185 155t237.5 56q148 0 259.5 -56t196.5 -173l-127 -97q-35 47 -69.5 81t-73.5 56.5t-85.5 33t-104.5 10.5q-92 0 -169.5 -43.5t-133.5 -122
t-87.5 -187.5t-31.5 -239q0 -131 32 -240.5t89 -188.5t134.5 -123t168.5 -44q116 0 200.5 49.5t153.5 138.5z" />
    <glyph glyph-name="Eacute" unicode="&#xc9;" horiz-adv-x="1202" 
d="M1085 0h-897v1434h867v-146h-707v-450h410v-146h-410v-547h737v-145zM952 1853l-309 -327h-121l211 327h219z" />
    <glyph glyph-name="Ntilde" unicode="&#xd1;" horiz-adv-x="1409" 
d="M1221 0h-150l-627 981q-11 18 -26 43.5t-29.5 51t-27 48.5t-19.5 37v-98v-1063h-154v1434h156l621 -1000q11 -18 26 -43.5t29.5 -51t27 -48.5t19.5 -37v98v1082h154v-1434zM1080 1806q0 -68 -17 -118t-46 -83t-67 -49t-79 -16t-77.5 12t-74.5 41q-38 28 -61.5 46
t-40.5 27.5t-30.5 13t-29.5 3.5q-15 0 -27.5 -6.5t-22.5 -22.5t-17.5 -42t-12.5 -66h-127q0 68 17 118t46 83t67 49t79 16t77.5 -12t74.5 -41q37 -29 61.5 -46.5t42 -27t30.5 -13t28 -3.5q32 0 51 32.5t29 104.5h127z" />
    <glyph glyph-name="Odieresis" unicode="&#xd6;" horiz-adv-x="1444" 
d="M1317 719q0 -162 -43.5 -298t-122 -235t-189 -154t-243.5 -55q-134 0 -243 54.5t-186.5 152.5t-120 233.5t-42.5 297.5t43 298t121.5 234.5t188 153.5t243.5 55q133 0 242.5 -54.5t187.5 -152t121 -233t43 -297.5zM1157 715q0 135 -33.5 245t-92.5 188t-139.5 120.5
t-174.5 42.5q-93 0 -172 -42t-136 -119t-89.5 -186.5t-32.5 -244.5t33.5 -245t92 -188t138.5 -120.5t174 -42.5q93 0 172 41.5t137 119t90.5 187t32.5 244.5zM1032 1655q0 -23 -9 -43.5t-24 -36t-35.5 -24.5t-43.5 -9t-43.5 9t-36 24.5t-24.5 36t-9 43.5t9 43.5t24.5 36.5
t36 25t43.5 9t43.5 -9t35.5 -25t24 -36.5t9 -43.5zM635 1655q0 -23 -9 -43.5t-24 -36t-35.5 -24.5t-42.5 -9q-24 0 -44.5 9t-36 24.5t-24.5 36t-9 43.5t9 43.5t24.5 36.5t36 25t44.5 9q22 0 42.5 -9t35.5 -25t24 -36.5t9 -43.5z" />
    <glyph glyph-name="Udieresis" unicode="&#xdc;" horiz-adv-x="1389" 
d="M1210 586q0 -299 -128 -454t-386 -155t-388 152.5t-130 452.5v852h160v-848q0 -234 90 -348.5t277 -114.5q93 0 158.5 28t107 85t61 143.5t19.5 202.5v852h159v-848zM1005 1655q0 -23 -9 -43.5t-24 -36t-35.5 -24.5t-43.5 -9t-43.5 9t-36 24.5t-24.5 36t-9 43.5t9 43.5
t24.5 36.5t36 25t43.5 9t43.5 -9t35.5 -25t24 -36.5t9 -43.5zM608 1655q0 -23 -9 -43.5t-24 -36t-35.5 -24.5t-42.5 -9q-24 0 -44.5 9t-36 24.5t-24.5 36t-9 43.5t9 43.5t24.5 36.5t36 25t44.5 9q22 0 42.5 -9t35.5 -25t24 -36.5t9 -43.5z" />
    <glyph glyph-name="aacute" unicode="&#xe1;" horiz-adv-x="1104" 
d="M940 0h-154v131q-28 -31 -62.5 -59t-76 -49t-90.5 -33.5t-106 -12.5q-63 0 -125 17t-110.5 57.5t-79 106.5t-30.5 164q0 90 34.5 155t91.5 107t131.5 62t154.5 20q82 0 151 -18t117 -44v127q0 121 -57 179.5t-176 58.5q-85 0 -156 -22t-137 -60l-57 125q71 38 163 62
t197 24q87 0 157 -19.5t118.5 -61.5t75 -108t26.5 -159v-750zM786 264v217q-26 15 -54 26.5t-61 19.5t-72.5 12t-88.5 4q-119 0 -185.5 -54.5t-66.5 -156.5q0 -60 16 -103.5t44.5 -71.5t69 -41.5t89.5 -13.5q52 0 97.5 12.5t84.5 34.5t71 51.5t56 63.5zM895 1546l-309 -327
h-121l211 327h219z" />
    <glyph glyph-name="agrave" unicode="&#xe0;" horiz-adv-x="1104" 
d="M940 0h-154v131q-28 -31 -62.5 -59t-76 -49t-90.5 -33.5t-106 -12.5q-63 0 -125 17t-110.5 57.5t-79 106.5t-30.5 164q0 90 34.5 155t91.5 107t131.5 62t154.5 20q82 0 151 -18t117 -44v127q0 121 -57 179.5t-176 58.5q-85 0 -156 -22t-137 -60l-57 125q71 38 163 62
t197 24q87 0 157 -19.5t118.5 -61.5t75 -108t26.5 -159v-750zM786 264v217q-26 15 -54 26.5t-61 19.5t-72.5 12t-88.5 4q-119 0 -185.5 -54.5t-66.5 -156.5q0 -60 16 -103.5t44.5 -71.5t69 -41.5t89.5 -13.5q52 0 97.5 12.5t84.5 34.5t71 51.5t56 63.5zM655 1219h-121
l-309 327h219z" />
    <glyph glyph-name="acircumflex" unicode="&#xe2;" horiz-adv-x="1104" 
d="M940 0h-154v131q-28 -31 -62.5 -59t-76 -49t-90.5 -33.5t-106 -12.5q-63 0 -125 17t-110.5 57.5t-79 106.5t-30.5 164q0 90 34.5 155t91.5 107t131.5 62t154.5 20q82 0 151 -18t117 -44v127q0 121 -57 179.5t-176 58.5q-85 0 -156 -22t-137 -60l-57 125q71 38 163 62
t197 24q87 0 157 -19.5t118.5 -61.5t75 -108t26.5 -159v-750zM786 264v217q-26 15 -54 26.5t-61 19.5t-72.5 12t-88.5 4q-119 0 -185.5 -54.5t-66.5 -156.5q0 -60 16 -103.5t44.5 -71.5t69 -41.5t89.5 -13.5q52 0 97.5 12.5t84.5 34.5t71 51.5t56 63.5zM893 1210h-133
l-207 211l-207 -211h-129l252 327h172z" />
    <glyph glyph-name="adieresis" unicode="&#xe4;" horiz-adv-x="1104" 
d="M940 0h-154v131q-28 -31 -62.5 -59t-76 -49t-90.5 -33.5t-106 -12.5q-63 0 -125 17t-110.5 57.5t-79 106.5t-30.5 164q0 90 34.5 155t91.5 107t131.5 62t154.5 20q82 0 151 -18t117 -44v127q0 121 -57 179.5t-176 58.5q-85 0 -156 -22t-137 -60l-57 125q71 38 163 62
t197 24q87 0 157 -19.5t118.5 -61.5t75 -108t26.5 -159v-750zM786 264v217q-26 15 -54 26.5t-61 19.5t-72.5 12t-88.5 4q-119 0 -185.5 -54.5t-66.5 -156.5q0 -60 16 -103.5t44.5 -71.5t69 -41.5t89.5 -13.5q52 0 97.5 12.5t84.5 34.5t71 51.5t56 63.5zM864 1339
q0 -23 -9 -43.5t-24 -36t-35.5 -24.5t-43.5 -9t-43.5 9t-36 24.5t-24.5 36t-9 43.5t9 43.5t24.5 36.5t36 25t43.5 9t43.5 -9t35.5 -25t24 -36.5t9 -43.5zM467 1339q0 -23 -9 -43.5t-24 -36t-35.5 -24.5t-42.5 -9q-24 0 -44.5 9t-36 24.5t-24.5 36t-9 43.5t9 43.5t24.5 36.5
t36 25t44.5 9q22 0 42.5 -9t35.5 -25t24 -36.5t9 -43.5z" />
    <glyph glyph-name="atilde" unicode="&#xe3;" horiz-adv-x="1104" 
d="M940 0h-154v131q-28 -31 -62.5 -59t-76 -49t-90.5 -33.5t-106 -12.5q-63 0 -125 17t-110.5 57.5t-79 106.5t-30.5 164q0 90 34.5 155t91.5 107t131.5 62t154.5 20q82 0 151 -18t117 -44v127q0 121 -57 179.5t-176 58.5q-85 0 -156 -22t-137 -60l-57 125q71 38 163 62
t197 24q87 0 157 -19.5t118.5 -61.5t75 -108t26.5 -159v-750zM786 264v217q-26 15 -54 26.5t-61 19.5t-72.5 12t-88.5 4q-119 0 -185.5 -54.5t-66.5 -156.5q0 -60 16 -103.5t44.5 -71.5t69 -41.5t89.5 -13.5q52 0 97.5 12.5t84.5 34.5t71 51.5t56 63.5zM918 1491
q0 -68 -17 -118t-46 -83t-67 -49t-79 -16t-77.5 12t-74.5 41q-38 28 -61.5 46t-40.5 27.5t-30.5 13t-29.5 3.5q-15 0 -27.5 -6.5t-22.5 -22.5t-17.5 -42t-12.5 -66h-127q0 68 17 118t46 83t67 49t79 16t77.5 -12t74.5 -41q37 -29 61.5 -46.5t42 -27t30.5 -13t28 -3.5
q32 0 51 32.5t29 104.5h127z" />
    <glyph glyph-name="aring" unicode="&#xe5;" horiz-adv-x="1104" 
d="M940 0h-154v131q-28 -31 -62.5 -59t-76 -49t-90.5 -33.5t-106 -12.5q-63 0 -125 17t-110.5 57.5t-79 106.5t-30.5 164q0 90 34.5 155t91.5 107t131.5 62t154.5 20q82 0 151 -18t117 -44v127q0 121 -57 179.5t-176 58.5q-85 0 -156 -22t-137 -60l-57 125q71 38 163 62
t197 24q87 0 157 -19.5t118.5 -61.5t75 -108t26.5 -159v-750zM786 264v217q-26 15 -54 26.5t-61 19.5t-72.5 12t-88.5 4q-119 0 -185.5 -54.5t-66.5 -156.5q0 -60 16 -103.5t44.5 -71.5t69 -41.5t89.5 -13.5q52 0 97.5 12.5t84.5 34.5t71 51.5t56 63.5zM795 1466
q0 -50 -18 -93.5t-50 -76t-76 -51t-96 -18.5t-96 18.5t-76 51t-50 76t-18 93.5t18 93.5t50 75.5t76 50.5t96 18.5t96 -18.5t76 -50.5t50 -75.5t18 -93.5zM698 1466q0 31 -10 58t-28.5 46.5t-45 30.5t-59.5 11t-59.5 -11t-45 -30.5t-28.5 -46.5t-10 -58q0 -32 10 -59
t28.5 -46.5t45 -30.5t59.5 -11t59.5 11t45 30.5t28.5 46.5t10 59z" />
    <glyph glyph-name="ccedilla" unicode="&#xe7;" horiz-adv-x="1014" 
d="M915 971l-92 -115q-29 26 -58 46.5t-59.5 34.5t-65 21t-75.5 7q-63 0 -117.5 -28t-94 -81.5t-62.5 -132t-23 -178.5q0 -99 20.5 -179t59.5 -137t95.5 -87.5t127.5 -30.5q39 0 72.5 8t63 22.5t57 35.5t55.5 48l92 -98q-34 -35 -70.5 -62.5t-78.5 -47t-90 -30t-105 -10.5
l-26 -81q21 14 48 21t64 7q21 0 45 -7.5t45 -24t34.5 -43.5t13.5 -66q0 -50 -19.5 -84t-53 -55t-78 -30t-93.5 -9q-63 0 -125.5 19t-116.5 54l39 66q85 -55 188 -55q40 0 66.5 7t42.5 19t22.5 28t6.5 34q0 31 -17 49t-49 18q-60 0 -98 -37l-74 29l47 150q-75 15 -141.5 56
t-116.5 109t-79 163t-29 218q0 149 40.5 256t106 176t148.5 101.5t167 32.5q110 0 193.5 -36t146.5 -91z" />
    <glyph glyph-name="eacute" unicode="&#xe9;" horiz-adv-x="1106" 
d="M989 569q0 -28 -1.5 -46.5t-4.5 -37.5h-717q6 -86 28.5 -155t60.5 -118t91 -75t119 -26q47 0 85.5 6.5t73 19.5t68 32t70.5 44l72 -111q-48 -31 -91.5 -54.5t-88.5 -39t-94.5 -23.5t-110.5 -8q-49 0 -100.5 12.5t-100 40.5t-91.5 72t-75 107t-50.5 146t-18.5 188
q0 128 33.5 231t92.5 175t140.5 110.5t177.5 38.5q105 0 186 -39.5t135.5 -109.5t82.5 -167.5t28 -212.5zM846 610q-5 78 -24.5 143.5t-55 112.5t-88.5 73t-123 26q-60 0 -110 -21.5t-87.5 -66t-61 -111t-30.5 -156.5h580zM895 1546l-309 -327h-121l211 327h219z" />
    <glyph glyph-name="egrave" unicode="&#xe8;" horiz-adv-x="1106" 
d="M989 569q0 -28 -1.5 -46.5t-4.5 -37.5h-717q6 -86 28.5 -155t60.5 -118t91 -75t119 -26q47 0 85.5 6.5t73 19.5t68 32t70.5 44l72 -111q-48 -31 -91.5 -54.5t-88.5 -39t-94.5 -23.5t-110.5 -8q-49 0 -100.5 12.5t-100 40.5t-91.5 72t-75 107t-50.5 146t-18.5 188
q0 128 33.5 231t92.5 175t140.5 110.5t177.5 38.5q105 0 186 -39.5t135.5 -109.5t82.5 -167.5t28 -212.5zM846 610q-5 78 -24.5 143.5t-55 112.5t-88.5 73t-123 26q-60 0 -110 -21.5t-87.5 -66t-61 -111t-30.5 -156.5h580zM655 1219h-121l-309 327h219z" />
    <glyph glyph-name="ecircumflex" unicode="&#xea;" horiz-adv-x="1106" 
d="M989 569q0 -28 -1.5 -46.5t-4.5 -37.5h-717q6 -86 28.5 -155t60.5 -118t91 -75t119 -26q47 0 85.5 6.5t73 19.5t68 32t70.5 44l72 -111q-48 -31 -91.5 -54.5t-88.5 -39t-94.5 -23.5t-110.5 -8q-49 0 -100.5 12.5t-100 40.5t-91.5 72t-75 107t-50.5 146t-18.5 188
q0 128 33.5 231t92.5 175t140.5 110.5t177.5 38.5q105 0 186 -39.5t135.5 -109.5t82.5 -167.5t28 -212.5zM846 610q-5 78 -24.5 143.5t-55 112.5t-88.5 73t-123 26q-60 0 -110 -21.5t-87.5 -66t-61 -111t-30.5 -156.5h580zM893 1200h-133l-207 211l-207 -211h-129l252 327
h172z" />
    <glyph glyph-name="edieresis" unicode="&#xeb;" horiz-adv-x="1106" 
d="M989 569q0 -28 -1.5 -46.5t-4.5 -37.5h-717q6 -86 28.5 -155t60.5 -118t91 -75t119 -26q47 0 85.5 6.5t73 19.5t68 32t70.5 44l72 -111q-48 -31 -91.5 -54.5t-88.5 -39t-94.5 -23.5t-110.5 -8q-49 0 -100.5 12.5t-100 40.5t-91.5 72t-75 107t-50.5 146t-18.5 188
q0 128 33.5 231t92.5 175t140.5 110.5t177.5 38.5q105 0 186 -39.5t135.5 -109.5t82.5 -167.5t28 -212.5zM846 610q-5 78 -24.5 143.5t-55 112.5t-88.5 73t-123 26q-60 0 -110 -21.5t-87.5 -66t-61 -111t-30.5 -156.5h580zM866 1339q0 -23 -9 -43.5t-24 -36t-35.5 -24.5
t-43.5 -9t-43.5 9t-36 24.5t-24.5 36t-9 43.5t9 43.5t24.5 36.5t36 25t43.5 9t43.5 -9t35.5 -25t24 -36.5t9 -43.5zM469 1339q0 -23 -9 -43.5t-24 -36t-35.5 -24.5t-42.5 -9q-24 0 -44.5 9t-36 24.5t-24.5 36t-9 43.5t9 43.5t24.5 36.5t36 25t44.5 9q22 0 42.5 -9t35.5 -25
t24 -36.5t9 -43.5z" />
    <glyph glyph-name="iacute" unicode="&#xed;" horiz-adv-x="514" 
d="M334 0h-154v1075h154v-1075zM621 1546l-309 -327h-121l211 327h219z" />
    <glyph glyph-name="igrave" unicode="&#xec;" horiz-adv-x="514" 
d="M334 0h-154v1075h154v-1075zM325 1219h-121l-309 327h219z" />
    <glyph glyph-name="icircumflex" unicode="&#xee;" horiz-adv-x="514" 
d="M334 0h-154v1075h154v-1075zM595 1189h-133l-207 211l-207 -211h-129l252 327h172z" />
    <glyph glyph-name="idieresis" unicode="&#xef;" horiz-adv-x="514" 
d="M334 0h-154v1075h154v-1075zM568 1329q0 -23 -9 -43.5t-24 -36t-35.5 -24.5t-43.5 -9t-43.5 9t-36 24.5t-24.5 36t-9 43.5t9 43.5t24.5 36.5t36 25t43.5 9t43.5 -9t35.5 -25t24 -36.5t9 -43.5zM171 1329q0 -23 -9 -43.5t-24 -36t-35.5 -24.5t-42.5 -9q-24 0 -44.5 9
t-36 24.5t-24.5 36t-9 43.5t9 43.5t24.5 36.5t36 25t44.5 9q22 0 42.5 -9t35.5 -25t24 -36.5t9 -43.5z" />
    <glyph glyph-name="ntilde" unicode="&#xf1;" horiz-adv-x="1161" 
d="M997 0h-153v629q0 174 -62 255t-192 81q-56 0 -104.5 -19.5t-84.5 -60.5t-56.5 -104.5t-20.5 -151.5v-629h-154v1075h154v-131q23 34 53 62t67.5 48.5t81.5 32t95 11.5q85 0 154.5 -25.5t118.5 -79.5t76 -138t27 -200v-655zM938 1491q0 -68 -17 -118t-46 -83t-67 -49
t-79 -16t-77.5 12t-74.5 41q-38 28 -61.5 46t-40.5 27.5t-30.5 13t-29.5 3.5q-15 0 -27.5 -6.5t-22.5 -22.5t-17.5 -42t-12.5 -66h-127q0 68 17 118t46 83t67 49t79 16t77.5 -12t74.5 -41q37 -29 61.5 -46.5t42 -27t30.5 -13t28 -3.5q32 0 51 32.5t29 104.5h127z" />
    <glyph glyph-name="oacute" unicode="&#xf3;" horiz-adv-x="1159" 
d="M1047 545q0 -137 -37 -243t-100.5 -178t-149.5 -109.5t-185 -37.5q-98 0 -182.5 36t-146.5 107t-97.5 175.5t-35.5 241.5q0 136 36.5 241t100.5 176t150 107.5t184 36.5t182.5 -35t147 -105t98 -173.5t35.5 -239.5zM893 541q0 106 -23 185.5t-64 132.5t-98.5 79.5
t-127.5 26.5t-127.5 -26.5t-98.5 -79.5t-63.5 -132.5t-22.5 -185.5t22.5 -186.5t63.5 -134.5t98.5 -81.5t127.5 -27.5t127.5 27.5t98.5 81.5t64 134.5t23 186.5zM911 1546l-309 -327h-121l211 327h219z" />
    <glyph glyph-name="ograve" unicode="&#xf2;" horiz-adv-x="1159" 
d="M1047 545q0 -137 -37 -243t-100.5 -178t-149.5 -109.5t-185 -37.5q-98 0 -182.5 36t-146.5 107t-97.5 175.5t-35.5 241.5q0 136 36.5 241t100.5 176t150 107.5t184 36.5t182.5 -35t147 -105t98 -173.5t35.5 -239.5zM893 541q0 106 -23 185.5t-64 132.5t-98.5 79.5
t-127.5 26.5t-127.5 -26.5t-98.5 -79.5t-63.5 -132.5t-22.5 -185.5t22.5 -186.5t63.5 -134.5t98.5 -81.5t127.5 -27.5t127.5 27.5t98.5 81.5t64 134.5t23 186.5zM670 1219h-121l-309 327h219z" />
    <glyph glyph-name="ocircumflex" unicode="&#xf4;" horiz-adv-x="1159" 
d="M1047 545q0 -137 -37 -243t-100.5 -178t-149.5 -109.5t-185 -37.5q-98 0 -182.5 36t-146.5 107t-97.5 175.5t-35.5 241.5q0 136 36.5 241t100.5 176t150 107.5t184 36.5t182.5 -35t147 -105t98 -173.5t35.5 -239.5zM893 541q0 106 -23 185.5t-64 132.5t-98.5 79.5
t-127.5 26.5t-127.5 -26.5t-98.5 -79.5t-63.5 -132.5t-22.5 -185.5t22.5 -186.5t63.5 -134.5t98.5 -81.5t127.5 -27.5t127.5 27.5t98.5 81.5t64 134.5t23 186.5zM916 1200h-133l-207 211l-207 -211h-129l252 327h172z" />
    <glyph glyph-name="odieresis" unicode="&#xf6;" horiz-adv-x="1159" 
d="M1047 545q0 -137 -37 -243t-100.5 -178t-149.5 -109.5t-185 -37.5q-98 0 -182.5 36t-146.5 107t-97.5 175.5t-35.5 241.5q0 136 36.5 241t100.5 176t150 107.5t184 36.5t182.5 -35t147 -105t98 -173.5t35.5 -239.5zM893 541q0 106 -23 185.5t-64 132.5t-98.5 79.5
t-127.5 26.5t-127.5 -26.5t-98.5 -79.5t-63.5 -132.5t-22.5 -185.5t22.5 -186.5t63.5 -134.5t98.5 -81.5t127.5 -27.5t127.5 27.5t98.5 81.5t64 134.5t23 186.5zM889 1329q0 -23 -9 -43.5t-24 -36t-35.5 -24.5t-43.5 -9t-43.5 9t-36 24.5t-24.5 36t-9 43.5t9 43.5t24.5 36.5
t36 25t43.5 9t43.5 -9t35.5 -25t24 -36.5t9 -43.5zM492 1329q0 -23 -9 -43.5t-24 -36t-35.5 -24.5t-42.5 -9q-24 0 -44.5 9t-36 24.5t-24.5 36t-9 43.5t9 43.5t24.5 36.5t36 25t44.5 9q22 0 42.5 -9t35.5 -25t24 -36.5t9 -43.5z" />
    <glyph glyph-name="otilde" unicode="&#xf5;" horiz-adv-x="1159" 
d="M1047 545q0 -137 -37 -243t-100.5 -178t-149.5 -109.5t-185 -37.5q-98 0 -182.5 36t-146.5 107t-97.5 175.5t-35.5 241.5q0 136 36.5 241t100.5 176t150 107.5t184 36.5t182.5 -35t147 -105t98 -173.5t35.5 -239.5zM893 541q0 106 -23 185.5t-64 132.5t-98.5 79.5
t-127.5 26.5t-127.5 -26.5t-98.5 -79.5t-63.5 -132.5t-22.5 -185.5t22.5 -186.5t63.5 -134.5t98.5 -81.5t127.5 -27.5t127.5 27.5t98.5 81.5t64 134.5t23 186.5zM943 1491q0 -68 -17 -118t-46 -83t-67 -49t-79 -16t-77.5 12t-74.5 41q-38 28 -61.5 46t-40.5 27.5t-30.5 13
t-29.5 3.5q-15 0 -27.5 -6.5t-22.5 -22.5t-17.5 -42t-12.5 -66h-127q0 68 17 118t46 83t67 49t79 16t77.5 -12t74.5 -41q37 -29 61.5 -46.5t42 -27t30.5 -13t28 -3.5q32 0 51 32.5t29 104.5h127z" />
    <glyph glyph-name="uacute" unicode="&#xfa;" horiz-adv-x="1161" 
d="M991 0h-153v131q-47 -68 -121 -111t-176 -43q-86 0 -155.5 26t-118.5 80t-76 137.5t-27 199.5v655h153v-629q0 -174 62 -254.5t192 -80.5q56 0 105 19.5t85 60t56.5 104t20.5 151.5v629h153v-1075zM923 1546l-309 -327h-121l211 327h219z" />
    <glyph glyph-name="ugrave" unicode="&#xf9;" horiz-adv-x="1161" 
d="M991 0h-153v131q-47 -68 -121 -111t-176 -43q-86 0 -155.5 26t-118.5 80t-76 137.5t-27 199.5v655h153v-629q0 -174 62 -254.5t192 -80.5q56 0 105 19.5t85 60t56.5 104t20.5 151.5v629h153v-1075zM653 1219h-121l-309 327h219z" />
    <glyph glyph-name="ucircumflex" unicode="&#xfb;" horiz-adv-x="1161" 
d="M991 0h-153v131q-47 -68 -121 -111t-176 -43q-86 0 -155.5 26t-118.5 80t-76 137.5t-27 199.5v655h153v-629q0 -174 62 -254.5t192 -80.5q56 0 105 19.5t85 60t56.5 104t20.5 151.5v629h153v-1075zM918 1219h-133l-207 211l-207 -211h-129l252 327h172z" />
    <glyph glyph-name="udieresis" unicode="&#xfc;" horiz-adv-x="1161" 
d="M991 0h-153v131q-47 -68 -121 -111t-176 -43q-86 0 -155.5 26t-118.5 80t-76 137.5t-27 199.5v655h153v-629q0 -174 62 -254.5t192 -80.5q56 0 105 19.5t85 60t56.5 104t20.5 151.5v629h153v-1075zM891 1348q0 -23 -9 -43.5t-24 -36t-35.5 -24.5t-43.5 -9t-43.5 9
t-36 24.5t-24.5 36t-9 43.5t9 43.5t24.5 36.5t36 25t43.5 9t43.5 -9t35.5 -25t24 -36.5t9 -43.5zM494 1348q0 -23 -9 -43.5t-24 -36t-35.5 -24.5t-42.5 -9q-24 0 -44.5 9t-36 24.5t-24.5 36t-9 43.5t9 43.5t24.5 36.5t36 25t44.5 9q22 0 42.5 -9t35.5 -25t24 -36.5t9 -43.5z
" />
    <glyph glyph-name="dagger" unicode="&#x2020;" horiz-adv-x="1174" 
d="M1061 815h-404v-1020h-141v1020h-403v135h403v484h141v-484h404v-135z" />
    <glyph glyph-name="degree" unicode="&#xb0;" horiz-adv-x="975" 
d="M870 1065q0 -84 -28.5 -156.5t-79 -125.5t-121 -83t-154.5 -30q-83 0 -153 30t-121 83t-80 125.5t-29 156.5q0 82 29 153.5t80 124t121 83t153 30.5q84 0 154.5 -30.5t121 -83t79 -124t28.5 -153.5zM735 1065q0 57 -17.5 105.5t-50 83.5t-78.5 55t-102 20
q-55 0 -100.5 -20t-78 -55t-50.5 -83.5t-18 -105.5q0 -60 18 -109.5t50.5 -84.5t78 -54.5t100.5 -19.5q56 0 102 19.5t78.5 54.5t50 84.5t17.5 109.5z" />
    <glyph glyph-name="cent" unicode="&#xa2;" horiz-adv-x="1014" 
d="M915 1163l-88 -110q-33 27 -62 47t-59.5 32.5t-64.5 18.5t-76 6q-63 0 -117.5 -28t-94 -81.5t-62.5 -131.5t-23 -179q0 -99 20.5 -179t59.5 -137t95.5 -87.5t127.5 -30.5q79 0 137 29.5t113 83.5l90 -97q-55 -57 -119.5 -93.5t-148.5 -49.5v-199h-158v199
q-76 14 -143.5 55t-118.5 109t-80.5 164t-29.5 221q0 129 31 226.5t82.5 165.5t118.5 109t140 56v193h158v-189q85 -11 152.5 -43.5t119.5 -79.5z" />
    <glyph glyph-name="sterling" unicode="&#xa3;" horiz-adv-x="1251" 
d="M1130 0h-958v143q46 53 83 103t63 104t40 114.5t15 135.5h-201v139h178q-12 32 -29.5 63.5t-37.5 65.5q-18 28 -31 54t-21.5 52.5t-13 56.5t-4.5 67q0 87 35.5 153.5t97.5 112t145.5 69t180.5 23.5q133 0 240 -46t202 -132l-96 -117q-78 75 -164 113.5t-186 38.5
q-75 0 -130.5 -17.5t-92.5 -46.5t-55.5 -67.5t-18.5 -81.5q0 -50 16.5 -94.5t48.5 -98.5q20 -34 40 -76t34 -92h311v-139h-297q-2 -78 -17 -143.5t-39 -121t-54 -102.5t-62 -88h778v-145z" />
    <glyph glyph-name="section" unicode="&#xa7;" horiz-adv-x="1286" 
d="M1174 549q0 -62 -19.5 -114.5t-54 -96t-80.5 -79.5t-100 -66q52 -41 81 -93.5t29 -124.5q0 -71 -29.5 -128.5t-82 -98t-125.5 -62.5t-160 -22q-117 0 -212.5 38.5t-182.5 109.5l94 114q40 -34 77 -56.5t75 -36.5t80 -20t93 -6q47 0 86.5 11t68 31.5t44.5 49.5t16 64
q0 34 -13.5 64t-46.5 56t-89.5 49t-142.5 44q-135 34 -224.5 71t-143.5 83.5t-76.5 105t-22.5 135.5q0 62 19.5 114.5t53.5 96.5t80.5 80t100.5 66q-53 40 -82 93t-29 124t29.5 128.5t82 98t125.5 62.5t160 22q117 0 212.5 -38.5t183.5 -108.5l-95 -115q-41 34 -77.5 56.5
t-74.5 36.5t-80 20t-93 6q-47 0 -86.5 -11t-68 -31.5t-44.5 -49.5t-16 -64t13.5 -64.5t47 -55.5t90 -49t142.5 -44q134 -34 224 -71t144 -83.5t76.5 -105t22.5 -135.5zM1016 537q0 43 -12 79.5t-47.5 67.5t-99 58t-165.5 53q-54 14 -102.5 28t-93.5 33q-107 -49 -166.5 -119
t-59.5 -153q0 -44 12.5 -80.5t47.5 -67.5t98.5 -58t165.5 -52q54 -14 103 -28.5t94 -33.5q106 50 165.5 119.5t59.5 153.5z" />
    <glyph glyph-name="bullet" unicode="&#x2022;" horiz-adv-x="766" 
d="M602 750q0 -45 -17 -85t-47 -70t-70 -47.5t-85 -17.5t-85 17.5t-70 47.5t-47 70t-17 85t17 85.5t47 71t70 48.5t85 18t85 -18t70 -48.5t47 -71t17 -85.5z" />
    <glyph glyph-name="paragraph" unicode="&#xb6;" horiz-adv-x="1409" 
d="M1219 -379h-158v1673h-187v-1673h-157v914h-156q-95 0 -179 29.5t-148 87t-101 141.5t-37 192t37.5 191.5t101 140.5t148 87t178.5 30h658v-1813z" />
    <glyph glyph-name="germandbls" unicode="&#xdf;" horiz-adv-x="1171" 
d="M1059 463q0 -128 -42 -216t-114.5 -143t-169 -79.5t-205.5 -24.5h-30v135h37q88 0 157 18t116 56.5t72 97.5t25 142q0 80 -30 136.5t-81 92.5t-117 53t-138 17h-41v133h47q118 0 184 60t66 181q0 53 -17 96t-48.5 73t-75 46.5t-97.5 16.5q-51 0 -93.5 -17.5t-73.5 -51.5
t-48.5 -85t-17.5 -117v-1392l-154 -86v1452q0 104 28 184.5t79.5 135t123.5 82.5t160 28t160 -28t122 -76.5t77.5 -115t27.5 -143.5q0 -63 -15.5 -111t-41.5 -84t-59.5 -61t-69.5 -41q54 -13 107 -39t95 -69.5t68.5 -106.5t26.5 -149z" />
    <glyph glyph-name="registered" unicode="&#xae;" horiz-adv-x="1098" 
d="M979 1028q0 -96 -34.5 -175t-93 -136t-137 -88t-165.5 -31q-89 0 -167 31t-136.5 88t-92.5 136t-34 175q0 97 34 176t92.5 135.5t136.5 87.5t167 31q88 0 166.5 -31t137 -87.5t92.5 -135.5t34 -176zM901 1028q0 79 -26.5 145t-74 113t-112 73.5t-139.5 26.5t-140 -26.5
t-112.5 -73.5t-74.5 -113t-27 -145t27 -145t74.5 -113t112.5 -73.5t140 -26.5t139.5 26.5t112 73.5t74 113t26.5 145zM745 1135q0 -54 -29 -90t-75 -52l107 -200h-95l-100 194h-80v-194h-86v485h201q33 0 61.5 -8.5t50 -26t33.5 -44.5t12 -64zM664 1135q0 35 -21 51t-59 16
h-111v-135h102q45 0 67 15t22 53z" />
    <glyph glyph-name="copyright" unicode="&#xa9;" horiz-adv-x="1098" 
d="M725 870q-34 -46 -77 -70t-99 -24q-46 0 -83.5 19t-64 53t-41 79.5t-14.5 98.5q0 55 15 102t42 81.5t65 53.5t83 19q103 0 170 -94l-66 -49q-26 34 -49.5 48.5t-54.5 14.5q-27 0 -49.5 -13t-39 -35.5t-25.5 -54.5t-9 -69q0 -38 9.5 -70.5t26 -56t39 -36.5t48.5 -13
q32 0 58.5 18t54.5 50zM979 1028q0 -96 -34.5 -175t-93 -136t-137 -88t-165.5 -31q-89 0 -167 31t-136.5 88t-92.5 136t-34 175q0 97 34 176t92.5 135.5t136.5 87.5t167 31q88 0 166.5 -31t137 -87.5t92.5 -135.5t34 -176zM901 1028q0 79 -26.5 145t-74 113t-112 73.5
t-139.5 26.5t-140 -26.5t-112.5 -73.5t-74.5 -113t-27 -145t27 -145t74.5 -113t112.5 -73.5t140 -26.5t139.5 26.5t112 73.5t74 113t26.5 145z" />
    <glyph glyph-name="trademark" unicode="&#x2122;" horiz-adv-x="1561" 
d="M618 1348h-237v-732h-98v732h-238v86h573v-86zM1468 616h-92v543v88q-6 -25 -20.5 -64t-28.5 -73l-215 -516l-209 516q-7 16 -14.5 35t-14 37.5t-12 35.5t-8.5 29v-88v-543h-92v818h106l193 -490q7 -18 15.5 -39t16 -41t13.5 -38t10 -31q4 13 10 31t13.5 38t15 41
t14.5 39l195 490h104v-818z" />
    <glyph glyph-name="acute" unicode="&#xb4;" horiz-adv-x="1024" 
d="M786 1546l-309 -327h-121l211 327h219z" />
    <glyph glyph-name="dieresis" unicode="&#xa8;" horiz-adv-x="1024" 
d="M823 1348q0 -23 -9 -43.5t-24 -36t-35.5 -24.5t-43.5 -9t-43.5 9t-36 24.5t-24.5 36t-9 43.5t9 43.5t24.5 36.5t36 25t43.5 9t43.5 -9t35.5 -25t24 -36.5t9 -43.5zM426 1348q0 -23 -9 -43.5t-24 -36t-35.5 -24.5t-42.5 -9q-24 0 -44.5 9t-36 24.5t-24.5 36t-9 43.5
t9 43.5t24.5 36.5t36 25t44.5 9q22 0 42.5 -9t35.5 -25t24 -36.5t9 -43.5z" />
    <glyph glyph-name="notequal" unicode="&#x2260;" 
d="M1450 707l-340 -248q-11 -8 -18 -6q-12 3 -5 20l62 164h-330v-367l164 62q16 6 21 -4q3 -8 -7 -19l-247 -340l-248 340q-9 11 -6 19q4 11 20 4l164 -62v367h-338l61 -164q8 -17 -4 -20q-7 -2 -18 6l-340 248l340 247q11 9 18 7q12 -5 4 -21l-61 -164h338v387l-164 -61
q-16 -7 -20 4q-2 7 6 18l248 340l247 -340q9 -11 7 -18q-5 -10 -21 -4l-164 61v-387h330l-62 164q-6 16 5 21q7 2 18 -7z" />
    <glyph glyph-name="AE" unicode="&#xc6;" horiz-adv-x="2044" 
d="M1927 0h-897v365h-559l-240 -365h-182l963 1434h884v-146h-714v-450h417v-146h-417v-547h745v-145zM1034 1229q-10 -17 -26 -42.5t-34.5 -54t-37.5 -57.5t-35 -53l-336 -512h465v455q0 33 0.5 70t1.5 73t1.5 67.5t0.5 53.5z" />
    <glyph glyph-name="Oslash" unicode="&#xd8;" horiz-adv-x="1444" 
d="M1317 719q0 -162 -43.5 -298t-122 -235t-189 -154t-243.5 -55q-71 0 -134.5 15.5t-119.5 44.5l-64 -139h-141l98 213q-111 99 -171 253.5t-60 350.5q0 162 43 298t121.5 234.5t188 153.5t243.5 55q122 0 227 -47l58 127h141l-88 -195q60 -47 107.5 -111t80.5 -143.5
t50.5 -172t17.5 -195.5zM889 1276q-80 41 -172 41q-94 0 -173.5 -42.5t-138 -120.5t-91.5 -188.5t-33 -246.5q0 -147 38.5 -263.5t106.5 -195.5zM1163 715q0 159 -45 282t-123 201l-469 -1026q89 -55 199 -55q94 0 174 42t138.5 120t92 188.5t33.5 247.5z" />
    <glyph glyph-name="infinity" unicode="&#x221e;" 
d="M1450 707l-340 -248q-11 -8 -18 -6q-12 3 -5 20l62 164h-330v-367l164 62q16 6 21 -4q3 -8 -7 -19l-247 -340l-248 340q-9 11 -6 19q4 11 20 4l164 -62v367h-338l61 -164q8 -17 -4 -20q-7 -2 -18 6l-340 248l340 247q11 9 18 7q12 -5 4 -21l-61 -164h338v387l-164 -61
q-16 -7 -20 4q-2 7 6 18l248 340l247 -340q9 -11 7 -18q-5 -10 -21 -4l-164 61v-387h330l-62 164q-6 16 5 21q7 2 18 -7z" />
    <glyph glyph-name="plusminus" unicode="&#xb1;" 
d="M1450 707l-340 -248q-11 -8 -18 -6q-12 3 -5 20l62 164h-330v-367l164 62q16 6 21 -4q3 -8 -7 -19l-247 -340l-248 340q-9 11 -6 19q4 11 20 4l164 -62v367h-338l61 -164q8 -17 -4 -20q-7 -2 -18 6l-340 248l340 247q11 9 18 7q12 -5 4 -21l-61 -164h338v387l-164 -61
q-16 -7 -20 4q-2 7 6 18l248 340l247 -340q9 -11 7 -18q-5 -10 -21 -4l-164 61v-387h330l-62 164q-6 16 5 21q7 2 18 -7z" />
    <glyph glyph-name="lessequal" unicode="&#x2264;" 
d="M1450 707l-340 -248q-11 -8 -18 -6q-12 3 -5 20l62 164h-330v-367l164 62q16 6 21 -4q3 -8 -7 -19l-247 -340l-248 340q-9 11 -6 19q4 11 20 4l164 -62v367h-338l61 -164q8 -17 -4 -20q-7 -2 -18 6l-340 248l340 247q11 9 18 7q12 -5 4 -21l-61 -164h338v387l-164 -61
q-16 -7 -20 4q-2 7 6 18l248 340l247 -340q9 -11 7 -18q-5 -10 -21 -4l-164 61v-387h330l-62 164q-6 16 5 21q7 2 18 -7z" />
    <glyph glyph-name="greaterequal" unicode="&#x2265;" 
d="M1450 707l-340 -248q-11 -8 -18 -6q-12 3 -5 20l62 164h-330v-367l164 62q16 6 21 -4q3 -8 -7 -19l-247 -340l-248 340q-9 11 -6 19q4 11 20 4l164 -62v367h-338l61 -164q8 -17 -4 -20q-7 -2 -18 6l-340 248l340 247q11 9 18 7q12 -5 4 -21l-61 -164h338v387l-164 -61
q-16 -7 -20 4q-2 7 6 18l248 340l247 -340q9 -11 7 -18q-5 -10 -21 -4l-164 61v-387h330l-62 164q-6 16 5 21q7 2 18 -7z" />
    <glyph glyph-name="yen" unicode="&#xa5;" horiz-adv-x="1253" 
d="M1178 1434l-471 -865v-159h317v-142h-317v-268h-160v268h-336v142h336v157l-471 867h182l213 -412q21 -40 42.5 -83t42.5 -84.5t39.5 -80t33.5 -69.5q15 31 33.5 70t39.5 81l42.5 85t41.5 81l213 412h179z" />
    <glyph glyph-name="mu" unicode="&#xb5;" horiz-adv-x="1577" 
d="M1536 707l-360 -240q-15 -10 -23 -4q-11 7 -6 18l61 154h-839l61 -154q5 -11 -6 -18q-9 -6 -23 4l-360 240l360 239q14 10 23 4q5 -3 7 -7.5t-1 -10.5l-61 -154h839l-61 154q-3 6 -1 10.5t7 7.5q8 6 23 -4z" />
    <glyph glyph-name="mu" unicode="&#x3bc;" horiz-adv-x="1577" 
d="M1536 707l-360 -240q-15 -10 -23 -4q-11 7 -6 18l61 154h-839l61 -154q5 -11 -6 -18q-9 -6 -23 4l-360 240l360 239q14 10 23 4q5 -3 7 -7.5t-1 -10.5l-61 -154h839l-61 154q-3 6 -1 10.5t7 7.5q8 6 23 -4z" />
    <glyph glyph-name="partialdiff" unicode="&#x2202;" horiz-adv-x="750" 
d="M618 352q7 -9 -4 -22l-239 -361l-240 361q-10 13 -4 22q7 11 19 6l153 -61v840l-153 -62q-12 -5 -19 6q-6 9 4 23l240 360l239 -360q12 -14 4 -23q-3 -5 -7.5 -7t-10.5 1l-154 62v-840l154 61q6 3 10.5 1t7.5 -7z" />
    <glyph glyph-name="summation" unicode="&#x2211;" 
d="M1450 707l-340 -248q-11 -8 -18 -6q-12 3 -5 20l62 164h-330v-367l164 62q16 6 21 -4q3 -8 -7 -19l-247 -340l-248 340q-9 11 -6 19q4 11 20 4l164 -62v367h-338l61 -164q8 -17 -4 -20q-7 -2 -18 6l-340 248l340 247q11 9 18 7q12 -5 4 -21l-61 -164h338v387l-164 -61
q-16 -7 -20 4q-2 7 6 18l248 340l247 -340q9 -11 7 -18q-5 -10 -21 -4l-164 61v-387h330l-62 164q-6 16 5 21q7 2 18 -7z" />
    <glyph glyph-name="product" unicode="&#x220f;" 
d="M1450 707l-340 -248q-11 -8 -18 -6q-12 3 -5 20l62 164h-330v-367l164 62q16 6 21 -4q3 -8 -7 -19l-247 -340l-248 340q-9 11 -6 19q4 11 20 4l164 -62v367h-338l61 -164q8 -17 -4 -20q-7 -2 -18 6l-340 248l340 247q11 9 18 7q12 -5 4 -21l-61 -164h338v387l-164 -61
q-16 -7 -20 4q-2 7 6 18l248 340l247 -340q9 -11 7 -18q-5 -10 -21 -4l-164 61v-387h330l-62 164q-6 16 5 21q7 2 18 -7z" />
    <glyph glyph-name="pi" unicode="&#x3c0;" horiz-adv-x="1712" 
d="M1595 717q0 -165 -56.5 -301.5t-155.5 -234t-234.5 -151t-292.5 -53.5q-158 0 -293 53.5t-234 151t-155.5 234t-56.5 301.5t56.5 301t155.5 233.5t234 151t293 53.5q157 0 292.5 -53.5t234.5 -151t155.5 -233.5t56.5 -301zM1495 717q0 143 -49 261.5t-134.5 204
t-202.5 132.5t-253 47t-252.5 -47t-202.5 -132.5t-135 -204t-49 -261.5t49 -261.5t135 -204t202.5 -132.5t252.5 -47t253 47t202.5 132.5t134.5 204t49 261.5zM1200 872q0 -60 -21 -107t-58.5 -79t-90 -48.5t-115.5 -16.5h-188v-316h-109v817h314q57 0 106 -15t85 -46
t56.5 -78t20.5 -111zM1094 874q0 81 -45 116.5t-125 35.5h-197v-305h184q90 0 136.5 35t46.5 118z" />
    <glyph glyph-name="integral" unicode="&#x222b;" horiz-adv-x="1145" 
d="M975 0h-154v131q-29 -31 -62.5 -59t-73 -49t-86.5 -33.5t-101 -12.5q-81 0 -151 31.5t-122 98t-82 169t-30 244.5q0 143 31.5 251t86.5 181t129 109.5t158 36.5q51 0 94 -10.5t80 -29.5t68.5 -45.5t60.5 -58.5v121h154v-1075zM821 266v537q-22 34 -52.5 63.5t-67.5 51.5
t-80 34.5t-91 12.5q-134 0 -200 -112.5t-66 -330.5q0 -203 72.5 -307t200.5 -104q86 0 156.5 42t127.5 113z" />
    <glyph glyph-name="ordfeminine" unicode="&#xaa;" horiz-adv-x="932" 
d="M778 578h-139v90q-45 -45 -108.5 -77t-151.5 -32q-51 0 -102 14t-91 47t-65 86.5t-25 131.5q0 73 27.5 126t74 86.5t107.5 49.5t127 16q63 0 116 -12t91 -31v88q0 88 -43.5 133t-134.5 45q-66 0 -124 -16.5t-112 -48.5l-55 110q62 32 138 52t161 20q71 0 128.5 -15.5
t97.5 -49t61.5 -86.5t21.5 -129v-598zM639 795v163q-40 20 -89.5 33t-123.5 13q-90 0 -141.5 -41.5t-51.5 -116.5q0 -89 46 -130.5t120 -41.5q82 0 142 35t98 86z" />
    <glyph glyph-name="ordmasculine" unicode="&#xba;" horiz-adv-x="983" 
d="M872 1014q0 -109 -29.5 -193.5t-81.5 -142t-122 -87.5t-152 -30q-81 0 -149.5 29t-119 85.5t-79 140t-28.5 192.5t29.5 193t81.5 140.5t122.5 85.5t151.5 29t149.5 -28t119 -83.5t79 -138t28.5 -192.5zM733 1012q0 81 -17.5 141.5t-49 100.5t-76 59.5t-98.5 19.5
q-55 0 -99.5 -19.5t-76 -59.5t-49 -100.5t-17.5 -141.5q0 -82 17.5 -143.5t49 -102.5t76 -61.5t99.5 -20.5q54 0 98.5 20.5t76 61.5t49 102.5t17.5 143.5z" />
    <glyph glyph-name="Omega" unicode="&#x3a9;" horiz-adv-x="750" 
d="M618 1081q-3 -5 -7.5 -7t-10.5 1l-154 62v-1137h-143v1137l-153 -62q-12 -5 -19 6q-6 9 4 23l240 360l239 -360q12 -14 4 -23z" />
    <glyph glyph-name="Omega" unicode="&#x2126;" horiz-adv-x="750" 
d="M618 1081q-3 -5 -7.5 -7t-10.5 1l-154 62v-1137h-143v1137l-153 -62q-12 -5 -19 6q-6 9 4 23l240 360l239 -360q12 -14 4 -23z" />
    <glyph glyph-name="ae" unicode="&#xe6;" horiz-adv-x="1716" 
d="M1599 569q0 -28 -1.5 -46.5t-4.5 -37.5h-688q6 -86 26.5 -155t56 -118t86 -75t116.5 -26q47 0 83 6.5t68 19.5t63.5 32t68.5 44l71 -111q-48 -31 -89.5 -54.5t-83.5 -39t-89.5 -23.5t-107.5 -8q-45 0 -90.5 10t-88.5 32.5t-82.5 58t-70.5 86.5q-43 -49 -86.5 -84.5
t-91.5 -58t-104 -33.5t-124 -11q-63 0 -122.5 17t-105.5 57.5t-74 106.5t-28 164q0 90 32 155t87 107t127 62t152 20q81 0 143.5 -18t110.5 -44v127q0 121 -50.5 179.5t-168.5 58.5q-42 0 -78.5 -5.5t-70 -16t-65.5 -26t-65 -34.5l-57 125q71 38 156 62t190 24
q143 0 219 -52t94 -143q48 93 128 144t192 51q105 0 183.5 -39.5t130 -109.5t77.5 -167.5t26 -212.5zM1456 610q-5 78 -22 143.5t-50 112.5t-83.5 73t-120.5 26q-121 0 -191 -87t-84 -268h551zM786 285q-14 43 -21.5 92t-10.5 106q-26 14 -51 25t-55 19t-67 12t-85 4
q-119 0 -178.5 -54.5t-59.5 -156.5q0 -120 53.5 -175t151.5 -55q37 0 77.5 9t82 30.5t83 56.5t80.5 87z" />
    <glyph glyph-name="oslash" unicode="&#xf8;" horiz-adv-x="1159" 
d="M1047 545q0 -137 -37 -243t-100.5 -178t-149.5 -109.5t-185 -37.5q-95 0 -176 33l-53 -112h-135l84 176q-85 68 -133.5 184.5t-48.5 278.5q0 136 36.5 241t100.5 176t150 107.5t184 36.5q49 0 94.5 -9t87.5 -26l55 115h135l-86 -179q82 -68 129.5 -181.5t47.5 -272.5z
M709 942q-29 14 -61.5 20.5t-67.5 6.5q-71 0 -129 -27t-99.5 -80.5t-64.5 -134t-23 -186.5q0 -113 24.5 -195.5t69.5 -138.5zM897 541q0 108 -23.5 188.5t-66.5 134.5l-350 -733q58 -25 123 -25q70 0 128.5 28t100.5 82.5t65 136t23 188.5z" />
    <glyph glyph-name="questiondown" unicode="&#xbf;" horiz-adv-x="1149" 
d="M754 1331q0 -25 -10 -48.5t-27.5 -41.5t-40 -28.5t-47.5 -10.5t-47.5 10.5t-40 28.5t-27.5 41.5t-10 48.5t10 48t27.5 40t40 27t47.5 10t47.5 -10t40 -27t27.5 -40t10 -48zM1059 168q-41 -40 -92 -75t-111 -60.5t-129.5 -40.5t-146.5 -15q-98 0 -179.5 22t-140 66.5
t-91 110.5t-32.5 154q0 74 17 127.5t50 95t80 76t107 71.5q51 31 82 59.5t47.5 66t21.5 90t5 133.5h158q0 -69 -3 -121t-12 -93t-25.5 -73.5t-43.5 -62t-65.5 -58t-92.5 -61.5q-40 -25 -71 -48.5t-52 -51t-32 -61t-11 -77.5q0 -49 21 -89.5t59 -69t91 -44.5t118 -16
q57 0 107 11t95 31t86.5 49.5t81.5 66.5z" />
    <glyph glyph-name="exclamdown" unicode="&#xa1;" horiz-adv-x="539" 
d="M395 1331q0 -25 -10 -48.5t-27 -41.5t-40 -28.5t-48 -10.5q-24 0 -47 10.5t-40 28.5t-27.5 41.5t-10.5 48.5t10.5 48t27.5 40t40 27t47 10q25 0 48 -10t40 -27t27 -40t10 -48zM348 0h-158v674l37 375h86l35 -375v-674z" />
    <glyph glyph-name="logicalnot" unicode="&#xac;" horiz-adv-x="1290" 
d="M1249 707l-360 -240q-14 -10 -23 -4q-11 7 -6 18l62 154h-809v143h809l-62 154q-3 6 -1 10.5t7 7.5q9 6 23 -4z" />
    <glyph glyph-name="radical" unicode="&#x221a;" horiz-adv-x="1188" 
d="M1096 1434l-541 -1434h-143l-318 696h164l100 -229q13 -29 30.5 -71t35 -86t33 -84.5t24.5 -67.5q9 27 23 68.5t30 87.5t31.5 89.5t26.5 73.5l350 957h154z" />
    <glyph glyph-name="florin" unicode="&#x192;" horiz-adv-x="805" 
d="M682 1292q-26 13 -64 19t-75 6q-57 0 -91 -26t-34 -93v-123h219v-129h-219v-1255l-154 -86v1341h-147v129h147v117q0 72 21 122t57 81.5t85 46t105 14.5q94 0 150 -18v-146z" />
    <glyph glyph-name="approxequal" unicode="&#x2248;" horiz-adv-x="750" 
d="M618 352q7 -9 -4 -22l-239 -361l-240 361q-10 13 -4 22q7 11 19 6l153 -61v1137h143v-1137l154 61q6 3 10.5 1t7.5 -7z" />
    <glyph glyph-name="Delta" unicode="&#x394;" horiz-adv-x="1290" 
d="M1178 635h-809l61 -154q5 -11 -6 -18q-9 -6 -23 4l-360 240l360 239q14 10 23 4q5 -3 7 -7.5t-1 -10.5l-61 -154h809v-143z" />
    <glyph glyph-name="Delta" unicode="&#x2206;" horiz-adv-x="1290" 
d="M1178 635h-809l61 -154q5 -11 -6 -18q-9 -6 -23 4l-360 240l360 239q14 10 23 4q5 -3 7 -7.5t-1 -10.5l-61 -154h809v-143z" />
    <glyph glyph-name="guillemotleft" unicode="&#xab;" horiz-adv-x="1180" 
d="M1087 0h-174l-415 537l415 538h174l-415 -536zM651 0h-174l-416 537l416 538h174l-415 -536z" />
    <glyph glyph-name="guillemotright" unicode="&#xbb;" horiz-adv-x="1180" 
d="M1118 539l-416 -539h-174l416 537l-416 538h174zM682 539l-416 -539h-174l416 537l-416 538h174z" />
    <glyph glyph-name="ellipsis" unicode="&#x2026;" horiz-adv-x="1475" 
d="M1360 109q0 -27 -11 -51t-29 -42t-41.5 -28.5t-49.5 -10.5q-27 0 -51 10.5t-41.5 28.5t-28 42t-10.5 51t10.5 51t28 43t41.5 30t51 11q26 0 49.5 -11t41.5 -30t29 -43t11 -51zM868 109q0 -27 -10.5 -51t-28.5 -42t-42 -28.5t-50 -10.5q-27 0 -50.5 10.5t-41.5 28.5
t-28.5 42t-10.5 51t10.5 51t28.5 43t41.5 30t50.5 11q26 0 50 -11t42 -30t28.5 -43t10.5 -51zM377 109q0 -27 -11 -51t-29 -42t-41.5 -28.5t-49.5 -10.5q-27 0 -51 10.5t-41.5 28.5t-28 42t-10.5 51t10.5 51t28 43t41.5 30t51 11q26 0 49.5 -11t41.5 -30t29 -43t11 -51z" />
    <glyph glyph-name="nonbreakingspace" unicode="&#xa0;" horiz-adv-x="266" 
 />
    <glyph glyph-name="Agrave" unicode="&#xc0;" horiz-adv-x="1389" 
d="M1280 0h-168l-123 365h-592l-125 -365h-163l497 1434h176zM940 510l-158 471q-11 35 -24 75.5t-25.5 79t-22.5 72t-16 56.5q-5 -22 -15 -55.5t-22 -72.5t-26 -80.5t-27 -78.5l-158 -467h494zM758 1526h-121l-309 327h219z" />
    <glyph glyph-name="Atilde" unicode="&#xc3;" horiz-adv-x="1389" 
d="M1280 0h-168l-123 365h-592l-125 -365h-163l497 1434h176zM940 510l-158 471q-11 35 -24 75.5t-25.5 79t-22.5 72t-16 56.5q-5 -22 -15 -55.5t-22 -72.5t-26 -80.5t-27 -78.5l-158 -467h494zM1059 1798q0 -68 -17 -118t-46 -83t-67 -49t-79 -16t-77.5 12t-74.5 41
q-38 28 -61.5 46t-40.5 27.5t-30.5 13t-29.5 3.5q-15 0 -27.5 -6.5t-22.5 -22.5t-17.5 -42t-12.5 -66h-127q0 68 17 118t46 83t67 49t79 16t77.5 -12t74.5 -41q37 -29 61.5 -46.5t42 -27t30.5 -13t28 -3.5q32 0 51 32.5t29 104.5h127z" />
    <glyph glyph-name="Otilde" unicode="&#xd5;" horiz-adv-x="1444" 
d="M1317 719q0 -162 -43.5 -298t-122 -235t-189 -154t-243.5 -55q-134 0 -243 54.5t-186.5 152.5t-120 233.5t-42.5 297.5t43 298t121.5 234.5t188 153.5t243.5 55q133 0 242.5 -54.5t187.5 -152t121 -233t43 -297.5zM1157 715q0 135 -33.5 245t-92.5 188t-139.5 120.5
t-174.5 42.5q-93 0 -172 -42t-136 -119t-89.5 -186.5t-32.5 -244.5t33.5 -245t92 -188t138.5 -120.5t174 -42.5q93 0 172 41.5t137 119t90.5 187t32.5 244.5zM1084 1798q0 -68 -17 -118t-46 -83t-67 -49t-79 -16t-77.5 12t-74.5 41q-38 28 -61.5 46t-40.5 27.5t-30.5 13
t-29.5 3.5q-15 0 -27.5 -6.5t-22.5 -22.5t-17.5 -42t-12.5 -66h-127q0 68 17 118t46 83t67 49t79 16t77.5 -12t74.5 -41q37 -29 61.5 -46.5t42 -27t30.5 -13t28 -3.5q32 0 51 32.5t29 104.5h127z" />
    <glyph glyph-name="OE" unicode="&#x152;" horiz-adv-x="2136" 
d="M2019 0h-874v238q-33 -56 -72 -104t-89.5 -83t-116 -54.5t-152.5 -19.5q-133 0 -241.5 55t-185.5 153t-119 234t-42 298t42 297.5t119 234t185.5 153t241.5 54.5q80 0 146 -20t119 -54.5t94 -81t71 -98.5v232h844v-146h-701v-450h404v-146h-404v-547h731v-145zM1145 715
q0 135 -32.5 245t-90.5 188t-137.5 120.5t-173.5 42.5q-93 0 -171 -42t-134 -119t-87.5 -186.5t-31.5 -244.5t32.5 -245t90 -188t136.5 -120.5t173 -42.5q93 0 171 41.5t135 119t88.5 187t31.5 244.5z" />
    <glyph glyph-name="oe" unicode="&#x153;" horiz-adv-x="1835" 
d="M1718 569q0 -28 -1.5 -46.5t-4.5 -37.5h-696q5 -86 27.5 -155t59.5 -118t88 -75t114 -26q44 0 80.5 6.5t70 19.5t66 32t69.5 44l72 -111q-48 -31 -91 -54.5t-87 -39t-91.5 -23.5t-105.5 -8q-60 0 -114.5 20.5t-100.5 55.5t-80.5 81.5t-54.5 98.5q-21 -53 -55 -99.5
t-80.5 -81.5t-106 -55t-131.5 -20q-93 0 -175.5 36t-144 107t-97 175.5t-35.5 241.5q0 136 37 241t100 176t146.5 107.5t176.5 36.5q70 0 129 -20.5t105.5 -55t80.5 -81t54 -97.5q21 52 54.5 98.5t78.5 81t100.5 54.5t120.5 20q100 0 178.5 -39.5t132.5 -109.5t82.5 -167.5
t28.5 -212.5zM1575 610q-5 78 -24 143.5t-54 112.5t-85.5 73t-117.5 26q-57 0 -105 -21.5t-84 -66t-59 -111t-30 -156.5h559zM872 541q0 106 -22.5 185.5t-63 132.5t-96 79.5t-121.5 26.5t-121.5 -26.5t-95 -79.5t-62 -132.5t-22.5 -185.5t22.5 -186.5t62 -134.5t95 -81.5
t121.5 -27.5t121.5 27.5t96 81.5t63 134.5t22.5 186.5z" />
    <glyph glyph-name="endash" unicode="&#x2013;" horiz-adv-x="864" 
d="M760 676h-656v145h656v-145z" />
    <glyph glyph-name="emdash" unicode="&#x2014;" horiz-adv-x="1188" 
d="M1083 676h-979v145h979v-145z" />
    <glyph glyph-name="quotedblleft" unicode="&#x201c;" horiz-adv-x="961" 
d="M807 1434l-31 -457h-209l133 457h107zM362 1434l-30 -457h-209l133 457h106z" />
    <glyph glyph-name="quotedblright" unicode="&#x201d;" horiz-adv-x="961" 
d="M838 1434l-133 -457h-107l31 457h209zM393 1434l-133 -457h-106l30 457h209z" />
    <glyph glyph-name="quoteleft" unicode="&#x2018;" horiz-adv-x="516" 
d="M362 1434l-30 -457h-209l133 457h106z" />
    <glyph glyph-name="quoteright" unicode="&#x2019;" horiz-adv-x="516" 
d="M393 1434l-133 -457h-106l30 457h209z" />
    <glyph glyph-name="divide" unicode="&#xf7;" 
d="M1450 707l-340 -248q-11 -8 -18 -6q-12 3 -5 20l62 164h-330v-367l164 62q16 6 21 -4q3 -8 -7 -19l-247 -340l-248 340q-9 11 -6 19q4 11 20 4l164 -62v367h-338l61 -164q8 -17 -4 -20q-7 -2 -18 6l-340 248l340 247q11 9 18 7q12 -5 4 -21l-61 -164h338v387l-164 -61
q-16 -7 -20 4q-2 7 6 18l248 340l247 -340q9 -11 7 -18q-5 -10 -21 -4l-164 61v-387h330l-62 164q-6 16 5 21q7 2 18 -7z" />
    <glyph glyph-name="lozenge" unicode="&#x25ca;" 
d="M1450 707l-340 -248q-11 -8 -18 -6q-12 3 -5 20l62 164h-330v-367l164 62q16 6 21 -4q3 -8 -7 -19l-247 -340l-248 340q-9 11 -6 19q4 11 20 4l164 -62v367h-338l61 -164q8 -17 -4 -20q-7 -2 -18 6l-340 248l340 247q11 9 18 7q12 -5 4 -21l-61 -164h338v387l-164 -61
q-16 -7 -20 4q-2 7 6 18l248 340l247 -340q9 -11 7 -18q-5 -10 -21 -4l-164 61v-387h330l-62 164q-6 16 5 21q7 2 18 -7z" />
    <glyph glyph-name="ydieresis" unicode="&#xff;" horiz-adv-x="1087" 
d="M1006 1075l-535 -1454h-154l148 391l-383 1063h162l262 -780l37 -111l37 109l264 782h162zM856 1329q0 -23 -9 -43.5t-24 -36t-35.5 -24.5t-43.5 -9t-43.5 9t-36 24.5t-24.5 36t-9 43.5t9 43.5t24.5 36.5t36 25t43.5 9t43.5 -9t35.5 -25t24 -36.5t9 -43.5zM459 1329
q0 -23 -9 -43.5t-24 -36t-35.5 -24.5t-42.5 -9q-24 0 -44.5 9t-36 24.5t-24.5 36t-9 43.5t9 43.5t24.5 36.5t36 25t44.5 9q22 0 42.5 -9t35.5 -25t24 -36.5t9 -43.5z" />
    <glyph glyph-name="Ydieresis" unicode="&#x178;" horiz-adv-x="1335" 
d="M1239 1434l-491 -865v-569h-160v567l-492 867h183l229 -412q21 -39 43.5 -80t43.5 -81t40.5 -77.5t34.5 -68.5q15 31 34 69t40 78t43.5 81t43.5 79l230 412h178zM977 1635q0 -23 -9 -43.5t-24 -36t-35.5 -24.5t-43.5 -9t-43.5 9t-36 24.5t-24.5 36t-9 43.5t9 43.5
t24.5 36.5t36 25t43.5 9t43.5 -9t35.5 -25t24 -36.5t9 -43.5zM580 1635q0 -23 -9 -43.5t-24 -36t-35.5 -24.5t-42.5 -9q-24 0 -44.5 9t-36 24.5t-24.5 36t-9 43.5t9 43.5t24.5 36.5t36 25t44.5 9q22 0 42.5 -9t35.5 -25t24 -36.5t9 -43.5z" />
    <glyph glyph-name="fraction" unicode="&#x2044;" horiz-adv-x="936" 
d="M1040 1434l-977 -1434h-167l976 1434h168z" />
    <glyph glyph-name="fraction" unicode="&#x2215;" horiz-adv-x="936" 
d="M1040 1434l-977 -1434h-167l976 1434h168z" />
    <glyph glyph-name="Euro" unicode="&#x20ac;" horiz-adv-x="1219" 
d="M293 510q32 -186 127.5 -288.5t253.5 -102.5q56 0 101.5 12t85 35.5t74.5 58.5t71 80l102 -90q-41 -54 -85 -97.5t-96.5 -75t-115.5 -48.5t-141 -17q-127 0 -228.5 49.5t-173 144t-109.5 231.5t-38 313q0 179 39 317t111.5 232.5t175 143t229.5 48.5q75 0 136 -13.5
t111.5 -41.5t94 -71t84.5 -103l-119 -92q-33 48 -65 82t-68 55.5t-79 32t-99 10.5q-154 0 -248.5 -98t-128.5 -275h551v-129h-567q-2 -23 -2.5 -46t-0.5 -48q0 -20 0.5 -40t2.5 -40h567v-129h-553z" />
    <glyph glyph-name="guilsinglleft" unicode="&#x2039;" horiz-adv-x="743" 
d="M651 0h-174l-416 537l416 538h174l-415 -536z" />
    <glyph glyph-name="guilsinglright" unicode="&#x203a;" horiz-adv-x="743" 
d="M682 539l-416 -539h-174l416 537l-416 538h174z" />
    <glyph glyph-name="fi" unicode="&#xfb01;" horiz-adv-x="1223" 
d="M1075 1376q0 -22 -8.5 -41.5t-23 -34.5t-34 -23.5t-40.5 -8.5q-24 0 -44.5 8.5t-36 23.5t-24 34.5t-8.5 41.5q0 23 8.5 43.5t24 35.5t36 23.5t44.5 8.5q21 0 40.5 -8.5t34 -23.5t23 -35.5t8.5 -43.5zM633 1323q-26 12 -57 18.5t-68 6.5q-24 0 -44.5 -5t-35 -18t-23 -34.5
t-8.5 -55.5v-160h211v-129h-211v-946h-153v946h-148v129h148v148q0 72 18.5 122t52 81.5t80.5 46t103 14.5q46 0 76.5 -4.5t58.5 -14.5v-145zM1042 0h-153v1075h153v-1075z" />
    <glyph glyph-name="fl" unicode="&#xfb02;" horiz-adv-x="1223" 
d="M1042 0h-153v1407l153 86v-1493zM633 1323q-26 12 -57 18.5t-68 6.5q-24 0 -44.5 -5t-35 -18t-23 -34.5t-8.5 -55.5v-160h211v-129h-211v-946h-153v946h-148v129h148v148q0 72 18.5 122t52 81.5t80.5 46t103 14.5q46 0 76.5 -4.5t58.5 -14.5v-145z" />
    <glyph glyph-name="daggerdbl" unicode="&#x2021;" horiz-adv-x="1174" 
d="M1061 279h-404v-484h-141v484h-403v133h403v405h-403v133h403v484h141v-484h404v-133h-404v-405h404v-133z" />
    <glyph glyph-name="periodcentered" unicode="&#xb7;" horiz-adv-x="492" 
d="M377 752q0 -27 -11 -51t-29 -41.5t-41.5 -28t-49.5 -10.5q-27 0 -51 10.5t-41.5 28t-28 41.5t-10.5 51t10.5 51t28 43t41.5 30t51 11q26 0 49.5 -11t41.5 -30t29 -43t11 -51z" />
    <glyph glyph-name="periodcentered" unicode="&#x2219;" horiz-adv-x="492" 
d="M377 752q0 -27 -11 -51t-29 -41.5t-41.5 -28t-49.5 -10.5q-27 0 -51 10.5t-41.5 28t-28 41.5t-10.5 51t10.5 51t28 43t41.5 30t51 11q26 0 49.5 -11t41.5 -30t29 -43t11 -51z" />
    <glyph glyph-name="quotesinglbase" unicode="&#x201a;" horiz-adv-x="516" 
d="M393 236l-133 -457h-106l30 457h209z" />
    <glyph glyph-name="quotedblbase" unicode="&#x201e;" horiz-adv-x="961" 
d="M838 236l-133 -457h-107l31 457h209zM393 236l-133 -457h-106l30 457h209z" />
    <glyph glyph-name="perthousand" unicode="&#x2030;" horiz-adv-x="2755" 
d="M788 1012q0 -98 -24 -180.5t-68.5 -141.5t-106 -92t-136.5 -33t-136 32t-104 90.5t-66.5 140t-23.5 180.5q0 100 23.5 182.5t67 141.5t105 91.5t138.5 32.5q78 0 139.5 -32.5t104 -91t65 -140.5t22.5 -180zM1505 1434l-891 -1434h-149l891 1434h149zM2662 424
q0 -98 -24 -180.5t-68.5 -141.5t-106 -92t-136.5 -33t-136 32.5t-104 91t-66.5 140t-23.5 179.5q0 100 23.5 182.5t67 141.5t105 91.5t138.5 32.5q78 0 139.5 -32.5t104 -91t65 -140.5t22.5 -180zM1849 424q0 -98 -24 -180.5t-68.5 -141.5t-106.5 -92t-137 -33t-136 32.5
t-103.5 91t-66 140t-23.5 179.5q0 100 23.5 182.5t67 141.5t105 91.5t138.5 32.5q78 0 139.5 -32.5t104 -91t65 -140.5t22.5 -180zM647 1008q0 70 -13.5 130t-38.5 103t-60.5 67.5t-79.5 24.5q-45 0 -80 -23.5t-60 -66.5t-38 -102t-13 -129q0 -71 13.5 -130.5t38.5 -102.5
t60.5 -67t80.5 -24q44 0 79.5 26t60 69.5t37.5 101.5t13 123zM2521 420q0 70 -13.5 130t-38.5 103t-60.5 67.5t-79.5 24.5q-45 0 -80 -23.5t-60 -66.5t-38 -102t-13 -129q0 -71 13.5 -130t38.5 -102.5t60.5 -67.5t80.5 -24q44 0 79.5 26t60 69.5t37.5 101.5t13 123z
M1708 420q0 70 -13.5 130t-38.5 103t-60.5 67.5t-79.5 24.5q-45 0 -80 -23.5t-60 -66.5t-38 -102t-13 -129q0 -71 13.5 -130t38.5 -102.5t60.5 -67.5t80.5 -24q44 0 79.5 26t60 69.5t37.5 101.5t13 123z" />
    <glyph glyph-name="Acircumflex" unicode="&#xc2;" horiz-adv-x="1389" 
d="M1280 0h-168l-123 365h-592l-125 -365h-163l497 1434h176zM940 510l-158 471q-11 35 -24 75.5t-25.5 79t-22.5 72t-16 56.5q-5 -22 -15 -55.5t-22 -72.5t-26 -80.5t-27 -78.5l-158 -467h494zM1032 1485h-133l-207 211l-207 -211h-129l252 327h172z" />
    <glyph glyph-name="Ecircumflex" unicode="&#xca;" horiz-adv-x="1202" 
d="M1085 0h-897v1434h867v-146h-707v-450h410v-146h-410v-547h737v-145zM959 1526h-133l-207 211l-207 -211h-129l252 327h172z" />
    <glyph glyph-name="Aacute" unicode="&#xc1;" horiz-adv-x="1389" 
d="M1280 0h-168l-123 365h-592l-125 -365h-163l497 1434h176zM940 510l-158 471q-11 35 -24 75.5t-25.5 79t-22.5 72t-16 56.5q-5 -22 -15 -55.5t-22 -72.5t-26 -80.5t-27 -78.5l-158 -467h494zM1058 1853l-309 -327h-121l211 327h219z" />
    <glyph glyph-name="Edieresis" unicode="&#xcb;" horiz-adv-x="1202" 
d="M1085 0h-897v1434h867v-146h-707v-450h410v-146h-410v-547h737v-145zM934 1655q0 -23 -9 -43.5t-24 -36t-35.5 -24.5t-43.5 -9t-43.5 9t-36 24.5t-24.5 36t-9 43.5t9 43.5t24.5 36.5t36 25t43.5 9t43.5 -9t35.5 -25t24 -36.5t9 -43.5zM537 1655q0 -23 -9 -43.5t-24 -36
t-35.5 -24.5t-42.5 -9q-24 0 -44.5 9t-36 24.5t-24.5 36t-9 43.5t9 43.5t24.5 36.5t36 25t44.5 9q22 0 42.5 -9t35.5 -25t24 -36.5t9 -43.5z" />
    <glyph glyph-name="Egrave" unicode="&#xc8;" horiz-adv-x="1202" 
d="M1085 0h-897v1434h867v-146h-707v-450h410v-146h-410v-547h737v-145zM731 1526h-121l-309 327h219z" />
    <glyph glyph-name="Iacute" unicode="&#xcd;" horiz-adv-x="557" 
d="M358 0h-159v1434h159v-1434zM637 1853l-309 -327h-121l211 327h219z" />
    <glyph glyph-name="Icircumflex" unicode="&#xce;" horiz-adv-x="557" 
d="M358 0h-159v1434h159v-1434zM611 1516h-133l-207 211l-207 -211h-129l252 327h172z" />
    <glyph glyph-name="Idieresis" unicode="&#xcf;" horiz-adv-x="557" 
d="M358 0h-159v1434h159v-1434zM588 1663q0 -23 -9 -43.5t-24 -36t-35.5 -24.5t-43.5 -9t-43.5 9t-36 24.5t-24.5 36t-9 43.5t9 43.5t24.5 36.5t36 25t43.5 9t43.5 -9t35.5 -25t24 -36.5t9 -43.5zM191 1663q0 -23 -9 -43.5t-24 -36t-35.5 -24.5t-42.5 -9q-24 0 -44.5 9
t-36 24.5t-24.5 36t-9 43.5t9 43.5t24.5 36.5t36 25t44.5 9q22 0 42.5 -9t35.5 -25t24 -36.5t9 -43.5z" />
    <glyph glyph-name="Igrave" unicode="&#xcc;" horiz-adv-x="557" 
d="M358 0h-159v1434h159v-1434zM354 1526h-121l-309 327h219z" />
    <glyph glyph-name="Oacute" unicode="&#xd3;" horiz-adv-x="1444" 
d="M1317 719q0 -162 -43.5 -298t-122 -235t-189 -154t-243.5 -55q-134 0 -243 54.5t-186.5 152.5t-120 233.5t-42.5 297.5t43 298t121.5 234.5t188 153.5t243.5 55q133 0 242.5 -54.5t187.5 -152t121 -233t43 -297.5zM1157 715q0 135 -33.5 245t-92.5 188t-139.5 120.5
t-174.5 42.5q-93 0 -172 -42t-136 -119t-89.5 -186.5t-32.5 -244.5t33.5 -245t92 -188t138.5 -120.5t174 -42.5q93 0 172 41.5t137 119t90.5 187t32.5 244.5zM1065 1853l-309 -327h-121l211 327h219z" />
    <glyph glyph-name="Ocircumflex" unicode="&#xd4;" horiz-adv-x="1444" 
d="M1317 719q0 -162 -43.5 -298t-122 -235t-189 -154t-243.5 -55q-134 0 -243 54.5t-186.5 152.5t-120 233.5t-42.5 297.5t43 298t121.5 234.5t188 153.5t243.5 55q133 0 242.5 -54.5t187.5 -152t121 -233t43 -297.5zM1157 715q0 135 -33.5 245t-92.5 188t-139.5 120.5
t-174.5 42.5q-93 0 -172 -42t-136 -119t-89.5 -186.5t-32.5 -244.5t33.5 -245t92 -188t138.5 -120.5t174 -42.5q93 0 172 41.5t137 119t90.5 187t32.5 244.5zM1057 1516h-133l-207 211l-207 -211h-129l252 327h172z" />
    <glyph glyph-name="apple" 
d="M1450 707l-340 -248q-11 -8 -18 -6q-12 3 -5 20l62 164h-330v-367l164 62q16 6 21 -4q3 -8 -7 -19l-247 -340l-248 340q-9 11 -6 19q4 11 20 4l164 -62v367h-338l61 -164q8 -17 -4 -20q-7 -2 -18 6l-340 248l340 247q11 9 18 7q12 -5 4 -21l-61 -164h338v387l-164 -61
q-16 -7 -20 4q-2 7 6 18l248 340l247 -340q9 -11 7 -18q-5 -10 -21 -4l-164 61v-387h330l-62 164q-6 16 5 21q7 2 18 -7z" />
    <glyph glyph-name="Ograve" unicode="&#xd2;" horiz-adv-x="1444" 
d="M1317 719q0 -162 -43.5 -298t-122 -235t-189 -154t-243.5 -55q-134 0 -243 54.5t-186.5 152.5t-120 233.5t-42.5 297.5t43 298t121.5 234.5t188 153.5t243.5 55q133 0 242.5 -54.5t187.5 -152t121 -233t43 -297.5zM1157 715q0 135 -33.5 245t-92.5 188t-139.5 120.5
t-174.5 42.5q-93 0 -172 -42t-136 -119t-89.5 -186.5t-32.5 -244.5t33.5 -245t92 -188t138.5 -120.5t174 -42.5q93 0 172 41.5t137 119t90.5 187t32.5 244.5zM803 1526h-121l-309 327h219z" />
    <glyph glyph-name="Uacute" unicode="&#xda;" horiz-adv-x="1389" 
d="M1210 586q0 -299 -128 -454t-386 -155t-388 152.5t-130 452.5v852h160v-848q0 -234 90 -348.5t277 -114.5q93 0 158.5 28t107 85t61 143.5t19.5 202.5v852h159v-848zM1038 1822l-309 -327h-121l211 327h219z" />
    <glyph glyph-name="Ucircumflex" unicode="&#xdb;" horiz-adv-x="1389" 
d="M1210 586q0 -299 -128 -454t-386 -155t-388 152.5t-130 452.5v852h160v-848q0 -234 90 -348.5t277 -114.5q93 0 158.5 28t107 85t61 143.5t19.5 202.5v852h159v-848zM1032 1526h-133l-207 211l-207 -211h-129l252 327h172z" />
    <glyph glyph-name="Ugrave" unicode="&#xd9;" horiz-adv-x="1389" 
d="M1210 586q0 -299 -128 -454t-386 -155t-388 152.5t-130 452.5v852h160v-848q0 -234 90 -348.5t277 -114.5q93 0 158.5 28t107 85t61 143.5t19.5 202.5v852h159v-848zM777 1495h-121l-309 327h219z" />
    <glyph glyph-name="dotlessi" unicode="&#x131;" horiz-adv-x="514" 
d="M334 0h-154v1075h154v-1075z" />
    <glyph glyph-name="circumflex" unicode="&#x2c6;" horiz-adv-x="1024" 
d="M850 1219h-133l-207 211l-207 -211h-129l252 327h172z" />
    <glyph glyph-name="tilde" unicode="&#x2dc;" horiz-adv-x="1024" 
d="M877 1491q0 -68 -17 -118t-46 -83t-67 -49t-79 -16t-77.5 12t-74.5 41q-38 28 -61.5 46t-40.5 27.5t-30.5 13t-29.5 3.5q-15 0 -27.5 -6.5t-22.5 -22.5t-17.5 -42t-12.5 -66h-127q0 68 17 118t46 83t67 49t79 16t77.5 -12t74.5 -41q37 -29 61.5 -46.5t42 -27t30.5 -13
t28 -3.5q32 0 51 32.5t29 104.5h127z" />
    <glyph glyph-name="macron" unicode="&#xaf;" horiz-adv-x="1024" 
d="M791 1266h-558v143h558v-143z" />
    <glyph glyph-name="macron" unicode="&#x2c9;" horiz-adv-x="1024" 
d="M791 1266h-558v143h558v-143z" />
    <glyph glyph-name="breve" unicode="&#x2d8;" horiz-adv-x="1024" 
d="M858 1546q-4 -77 -29 -137.5t-69 -102.5t-107 -64.5t-143 -22.5q-75 0 -136.5 22.5t-106.5 64.5t-71 102.5t-30 137.5h127q15 -213 221 -213q94 0 152 51t67 162h125z" />
    <glyph glyph-name="dotaccent" unicode="&#x2d9;" horiz-adv-x="1024" 
d="M625 1348q0 -23 -9 -43.5t-24.5 -36t-36 -24.5t-43.5 -9t-43.5 9t-36 24.5t-24.5 36t-9 43.5t9 43.5t24.5 36.5t36 25t43.5 9t43.5 -9t36 -25t24.5 -36.5t9 -43.5z" />
    <glyph glyph-name="ring" unicode="&#x2da;" horiz-adv-x="1024" 
d="M752 1466q0 -50 -18 -93.5t-50 -76t-76 -51t-96 -18.5t-96 18.5t-76 51t-50 76t-18 93.5t18 93.5t50 75.5t76 50.5t96 18.5t96 -18.5t76 -50.5t50 -75.5t18 -93.5zM655 1466q0 31 -10 58t-28.5 46.5t-45 30.5t-59.5 11t-59.5 -11t-45 -30.5t-28.5 -46.5t-10 -58
q0 -32 10 -59t28.5 -46.5t45 -30.5t59.5 -11t59.5 11t45 30.5t28.5 46.5t10 59z" />
    <glyph glyph-name="cedilla" unicode="&#xb8;" horiz-adv-x="1024" 
d="M764 -217q0 -50 -19.5 -84t-53 -55t-78 -30t-93.5 -9q-63 0 -125 19t-116 54l38 66q86 -55 189 -55q40 0 66 7t42 19t22.5 28t6.5 34q0 31 -16.5 49t-48.5 18q-59 0 -99 -37l-73 29l51 164h92l-35 -104q22 14 49 21t64 7q21 0 45 -7.5t44.5 -24t34 -43.5t13.5 -66z" />
    <glyph glyph-name="hungarumlaut" unicode="&#x2dd;" horiz-adv-x="1024" 
d="M909 1546l-280 -327h-115l191 327h204zM547 1546l-281 -327h-114l190 327h205z" />
    <glyph glyph-name="ogonek" unicode="&#x2db;" horiz-adv-x="1024" 
d="M756 -315q-62 -34 -129 -57t-127 -23q-90 0 -138.5 45.5t-48.5 124.5q0 34 13 64.5t36 58t54.5 53t68.5 49.5h107q-79 -54 -115.5 -101.5t-36.5 -105.5q0 -42 25 -68t70 -26q49 0 92.5 11t97.5 34z" />
    <glyph glyph-name="caron" unicode="&#x2c7;" horiz-adv-x="1024" 
d="M850 1546l-252 -327h-172l-252 327h133l207 -211l207 211h129z" />
    <glyph glyph-name="Eth" unicode="&#xd0;" horiz-adv-x="1397" 
d="M1241 727q0 -195 -52.5 -333t-144.5 -225.5t-216.5 -128t-268.5 -40.5h-350v678h-127v143h127v613h379q141 0 261 -41.5t207 -127.5t136 -220t49 -318zM1081 721q0 137 -32.5 243t-96.5 178t-158.5 109t-218.5 37h-210v-467h290v-143h-290v-533h215q116 0 208.5 32
t157.5 101.5t100 178.5t35 264z" />
    <glyph glyph-name="eth" unicode="&#xf0;" horiz-adv-x="1159" 
d="M1047 610q0 -165 -32.5 -284.5t-93.5 -197t-148.5 -114.5t-197.5 -37q-93 0 -176.5 33t-147 96.5t-101 157.5t-37.5 217q0 124 36 218.5t96 158.5t137.5 96.5t160.5 32.5q70 0 125 -13t99 -37t78.5 -57.5t61.5 -74.5q-31 136 -86.5 235.5t-140.5 165.5l-115 -129l-104 88
l98 111q-42 17 -87.5 28.5t-96.5 16.5v135q72 -5 141.5 -23.5t134.5 -52.5l70 76l104 -88l-59 -65q63 -52 115 -121t88.5 -155.5t57 -191t20.5 -225.5zM893 485q0 97 -24.5 166.5t-68 114.5t-103.5 66.5t-132 21.5q-68 0 -123 -24t-93.5 -71t-59.5 -116t-21 -158
q0 -95 24 -165.5t66 -117t99 -69t123 -22.5t123 22.5t99.5 69t66.5 117t24 165.5z" />
    </font>
</defs>
</svg>
